<svg width="91" height="58" viewBox="0 0 91 58" fill="none" xmlns="http://www.w3.org/2000/svg">
<g clip-path="url(#clip0)">
<path d="M0.726338 57.7627C0.533164 57.7619 0.348196 57.684 0.212024 57.546C0.0758526 57.4081 -0.0003992 57.2215 1.57185e-06 57.0271V45.7838C0.000794951 45.5901 0.0775742 45.4047 0.213617 45.2677C0.34966 45.1308 0.533946 45.0535 0.726338 45.0527H4.74228C6.75855 45.0527 8.04847 46.0583 8.04847 48.3076C8.04847 49.6984 7.6853 50.484 6.41346 50.9967C7.59489 51.2697 8.52315 52.2024 8.52315 54.0301C8.52315 56.6084 7.25131 57.7611 4.56145 57.7611L0.726338 57.7627ZM2.67027 50.1367H4.01595C4.97887 50.1367 5.30587 49.6241 5.30587 48.6731C5.30587 47.7221 4.90503 47.3081 3.97828 47.3081H2.67027V50.1367ZM2.67027 55.5316H4.08828C5.14313 55.5316 5.5952 55.019 5.5952 53.886C5.5952 52.8804 5.25012 52.295 4.08828 52.295H2.67027V55.5316Z" fill="white"/>
<path d="M12.9099 57.7627C12.7167 57.7619 12.5317 57.684 12.3956 57.546C12.2594 57.4081 12.1831 57.2215 12.1835 57.0271V47.393H10.1854C9.99271 47.3926 9.80804 47.3155 9.67167 47.1785C9.5353 47.0416 9.45832 46.8559 9.45752 46.662V45.7838C9.45832 45.5899 9.5353 45.4042 9.67167 45.2672C9.80804 45.1302 9.99271 45.0531 10.1854 45.0527H16.8776C17.07 45.0535 17.2543 45.1308 17.3903 45.2677C17.5264 45.4047 17.6031 45.5901 17.6039 45.7838V46.662C17.6031 46.8556 17.5264 47.0411 17.3903 47.178C17.2543 47.3149 17.07 47.3922 16.8776 47.393H14.8719V57.0271C14.8715 57.221 14.7949 57.4068 14.6588 57.5441C14.5227 57.6813 14.3382 57.7588 14.1456 57.7596L12.9099 57.7627Z" fill="white"/>
<path d="M19.9849 57.7627C19.7917 57.7619 19.6067 57.684 19.4706 57.546C19.3344 57.4081 19.2581 57.2215 19.2585 57.0271V45.7838C19.2593 45.5901 19.3361 45.4047 19.4722 45.2677C19.6082 45.1308 19.7925 45.0535 19.9849 45.0527H23.2202C26.4541 45.0527 27.6521 46.351 27.6521 48.6928C27.6521 50.7783 26.8534 51.6018 25.4173 52.0038C26.2356 52.2601 26.6892 53.0457 27.0523 54.3076L27.8525 57.0695C27.8742 57.1511 27.877 57.2366 27.8607 57.3194C27.8444 57.4023 27.8094 57.4802 27.7584 57.5473C27.7075 57.6144 27.6419 57.6689 27.5668 57.7064C27.4917 57.744 27.409 57.7638 27.3251 57.7642H25.8724C25.6618 57.7627 25.4574 57.6921 25.2902 57.5632C25.1229 57.4343 25.002 57.2541 24.9457 57.0498L24.1636 54.1453C23.8185 52.8652 23.5096 52.5922 22.5466 52.5922H21.9846V57.0271C21.9842 57.2212 21.9074 57.4073 21.7709 57.5446C21.6345 57.6819 21.4496 57.7592 21.2567 57.7596L19.9849 57.7627ZM21.9846 50.5568H23.3287C24.4363 50.5568 24.7814 50.0275 24.7814 48.8384C24.7814 47.76 24.364 47.3566 23.3107 47.3566H21.9846V50.5568Z" fill="white"/>
<path d="M33.9057 57.7611C33.7813 57.7592 33.6624 57.7085 33.5744 57.6199C33.4863 57.5313 33.436 57.4117 33.4341 57.2864V45.529C33.436 45.4035 33.4863 45.2838 33.5743 45.1949C33.6623 45.1061 33.7811 45.0551 33.9057 45.0527H39.3744C39.4991 45.0551 39.6181 45.106 39.7064 45.1948C39.7946 45.2836 39.8452 45.4034 39.8475 45.529V46.0219C39.8452 46.1475 39.7946 46.2673 39.7064 46.3561C39.6181 46.4449 39.4991 46.4958 39.3744 46.4981H35.1113V50.3384H38.4717C38.5945 50.3419 38.7114 50.3925 38.7983 50.4799C38.8851 50.5674 38.9354 50.685 38.9389 50.8086V51.303C38.9362 51.4284 38.8854 51.5478 38.7972 51.6363C38.709 51.7247 38.5902 51.7755 38.4657 51.7778H35.1113V56.299H39.617C39.7414 56.3014 39.86 56.3521 39.9479 56.4407C40.0359 56.5292 40.0863 56.6486 40.0886 56.7738V57.2864C40.0867 57.4117 40.0364 57.5313 39.9484 57.6199C39.8603 57.7085 39.7415 57.7592 39.617 57.7611H33.9057Z" fill="white"/>
<path d="M43.206 57.7617C43.0816 57.7597 42.9627 57.7091 42.8747 57.6205C42.7866 57.5319 42.7363 57.4122 42.7344 57.2869V45.5295C42.7363 45.4041 42.7866 45.2843 42.8746 45.1954C42.9626 45.1066 43.0814 45.0556 43.206 45.0533H43.9505C44.0913 45.0478 44.2306 45.0849 44.3504 45.1598C44.4702 45.2347 44.5649 45.3439 44.6225 45.4734C44.6225 45.4734 48.857 54.2566 49.1298 55.1165L48.973 45.5295C48.9754 45.4039 49.0259 45.2841 49.1142 45.1953C49.2024 45.1065 49.3214 45.0556 49.4462 45.0533H50.049C50.1737 45.0556 50.2928 45.1065 50.381 45.1953C50.4692 45.2841 50.5198 45.4039 50.5221 45.5295V57.2869C50.5198 57.4124 50.4692 57.532 50.3809 57.6206C50.2926 57.7091 50.1736 57.7597 50.049 57.7617H49.2503C49.1098 57.7651 48.9714 57.7272 48.852 57.6525C48.7326 57.5779 48.6374 57.4698 48.5782 57.3415C48.5782 57.3415 44.5623 48.8647 44.1629 47.6953L44.2895 57.2869C44.2876 57.4122 44.2373 57.5319 44.1492 57.6205C44.0612 57.7091 43.9423 57.7597 43.8179 57.7617H43.206Z" fill="white"/>
<path d="M54.3638 57.7611C54.2392 57.7592 54.1202 57.7086 54.0319 57.62C53.9436 57.5315 53.893 57.4118 53.8906 57.2864V45.529C53.8929 45.4034 53.9435 45.2836 54.0318 45.1948C54.12 45.106 54.239 45.0551 54.3638 45.0527H59.8324C59.957 45.0551 60.0759 45.1061 60.1639 45.1949C60.2519 45.2838 60.3021 45.4035 60.3041 45.529V46.0219C60.3021 46.1473 60.2519 46.2671 60.1639 46.356C60.0759 46.4448 59.957 46.4958 59.8324 46.4981H55.5633V50.3384H58.9207C59.0454 50.3404 59.1644 50.391 59.2526 50.4795C59.3409 50.5681 59.3916 50.6877 59.3939 50.8132V51.3076C59.3912 51.4329 59.3404 51.5523 59.2522 51.6408C59.164 51.7293 59.0452 51.78 58.9207 51.7823H55.5603V56.299H60.066C60.1904 56.3014 60.309 56.3521 60.3969 56.4407C60.4849 56.5292 60.5353 56.6486 60.5377 56.7738V57.2864C60.5353 57.4116 60.4849 57.531 60.3969 57.6195C60.309 57.708 60.1904 57.7588 60.066 57.7611H54.3638Z" fill="white"/>
<path d="M63.6646 57.7611C63.5399 57.7592 63.4209 57.7086 63.3327 57.62C63.2444 57.5315 63.1937 57.4119 63.1914 57.2864V45.529C63.1937 45.4034 63.2443 45.2836 63.3326 45.1948C63.4208 45.106 63.5398 45.0551 63.6646 45.0527H66.6784C69.0594 45.0527 70.5482 46.1872 70.5482 48.5639C70.5482 50.484 69.7676 51.4714 68.1688 51.9097C68.8047 52.1478 69.2944 52.7333 69.7495 54.0331L70.8752 57.3243C70.8957 57.3739 70.9034 57.428 70.8975 57.4814C70.8915 57.5348 70.8722 57.5858 70.8413 57.6296C70.8105 57.6734 70.769 57.7086 70.7209 57.7319C70.6728 57.7552 70.6196 57.7658 70.5663 57.7627H69.6772C69.54 57.7613 69.4062 57.719 69.293 57.6409C69.1797 57.5629 69.0921 57.4527 69.0413 57.3243L67.9503 54.1059C67.4063 52.571 66.8788 52.2601 66.0425 52.2601H64.8626V57.2879C64.8603 57.4134 64.8096 57.533 64.7213 57.6216C64.633 57.7101 64.514 57.7607 64.3894 57.7627L63.6646 57.7611ZM64.8701 50.886H66.6046C68.2758 50.886 68.8032 50.1549 68.8032 48.5821C68.8032 47.12 68.2577 46.4981 66.6046 46.4981H64.8641L64.8701 50.886Z" fill="white"/>
<path d="M80.5633 57.7615C80.4303 57.7607 80.3012 57.7157 80.1963 57.6334C80.0914 57.5511 80.0164 57.4361 79.9832 57.3065L79.8732 56.8515C79.2192 57.4733 78.2562 58.0026 77.221 58.0026C74.3322 58.0026 72.7695 55.7716 72.7695 51.5112C72.7695 47.4161 74.2418 44.9287 77.5299 44.9287C78.7113 44.9287 79.6562 45.2017 80.5091 45.8387C80.608 45.9173 80.6741 46.0303 80.6945 46.1555C80.7148 46.2806 80.6879 46.4089 80.6191 46.5152L80.3282 46.955C80.2927 47.0057 80.2475 47.0489 80.1953 47.0819C80.143 47.1149 80.0848 47.1371 80.0239 47.1472C79.9631 47.1574 79.9008 47.1553 79.8408 47.141C79.7808 47.1268 79.7242 47.1007 79.6743 47.0642C79.0657 46.6082 78.3231 46.3701 77.5646 46.3878C75.2575 46.3878 74.6035 47.9424 74.6035 51.4353C74.6035 54.9647 75.2755 56.6285 77.3461 56.6285C78.2186 56.6285 79.0368 56.1068 79.6908 55.5031V52.4955H77.8207C77.6962 52.4932 77.5774 52.4425 77.4892 52.354C77.401 52.2655 77.3503 52.1461 77.3476 52.0208V51.5263C77.3499 51.4009 77.4005 51.2813 77.4888 51.1927C77.5771 51.1042 77.6961 51.0536 77.8207 51.0516H80.8542C80.9788 51.0536 81.0978 51.1042 81.1861 51.1927C81.2744 51.2813 81.325 51.4009 81.3273 51.5263V57.2898C81.325 57.4152 81.2744 57.5348 81.1861 57.6234C81.0978 57.712 80.9788 57.7626 80.8542 57.7645L80.5633 57.7615Z" fill="white"/>
<path d="M86.431 57.7614C86.3064 57.7594 86.1874 57.7088 86.0991 57.6203C86.0108 57.5317 85.9602 57.4121 85.9578 57.2867V52.5697L82.6336 45.5004C82.6103 45.4539 82.5993 45.4021 82.6016 45.3501C82.604 45.298 82.6196 45.2475 82.647 45.2033C82.6744 45.1591 82.7127 45.1227 82.7581 45.0977C82.8035 45.0727 82.8546 45.0599 82.9063 45.0606H83.9054C84.0451 45.0618 84.1815 45.1041 84.2977 45.1822C84.4138 45.2604 84.5048 45.3709 84.5594 45.5004C84.5594 45.5004 86.6209 50.0975 86.8032 50.7012C87.0217 50.0945 89.1555 45.5004 89.1555 45.5004C89.2165 45.3716 89.3117 45.2623 89.4306 45.1847C89.5495 45.107 89.6874 45.0641 89.8291 45.0606H90.7001C90.7519 45.0599 90.8029 45.0727 90.8483 45.0977C90.8938 45.1227 90.932 45.1591 90.9594 45.2033C90.9868 45.2475 91.0025 45.298 91.0048 45.3501C91.0072 45.4021 90.9962 45.4539 90.9729 45.5004L87.6305 52.6137V57.2942C87.6282 57.4197 87.5775 57.5393 87.4893 57.6279C87.401 57.7164 87.282 57.767 87.1574 57.769L86.431 57.7614Z" fill="white"/>
<path d="M20.2772 38.2989C20.5538 38.2974 20.8209 38.1969 21.0307 38.0153C21.1361 37.9243 31.7132 28.9151 45.1143 28.9151C58.5153 28.9151 69.0924 37.9243 69.1979 38.0153C69.3139 38.1158 69.4484 38.1923 69.5937 38.2405C69.739 38.2886 69.8924 38.3075 70.045 38.296C70.1976 38.2846 70.3464 38.2429 70.483 38.1736C70.6197 38.1042 70.7414 38.0084 70.8412 37.8917C70.941 37.775 71.017 37.6396 71.0649 37.4933C71.1128 37.347 71.1315 37.1927 71.1201 37.0391C71.1087 36.8855 71.0674 36.7357 70.9984 36.5982C70.9295 36.4607 70.8343 36.3382 70.7184 36.2377C70.2663 35.8419 59.4029 26.5703 45.1143 26.5703C30.8256 26.5703 19.9653 35.8434 19.5102 36.2377C19.3298 36.3939 19.2013 36.602 19.1419 36.8339C19.0825 37.0658 19.095 37.3104 19.1779 37.5349C19.2608 37.7594 19.41 37.9529 19.6055 38.0895C19.8009 38.2261 20.0332 38.2992 20.2712 38.2989H20.2772Z" fill="url(#paint0_linear)"/>
<path d="M37.8451 34.6257C35.3602 31.8304 33.4494 27.6868 32.0827 23.296C28.8488 28.656 24.8886 33.9128 21.1183 37.8365C20.9033 38.0604 20.6087 38.1891 20.2994 38.1944C19.9901 38.1996 19.6914 38.081 19.469 37.8646C19.2466 37.6482 19.1187 37.3517 19.1134 37.0404C19.1082 36.7291 19.2261 36.4284 19.4411 36.2046C23.549 31.9335 27.9025 25.982 31.2056 20.1716C29.7289 14.264 29.2044 8.37622 29.5691 5.09106C29.9775 1.41762 32.3645 0.0541098 34.2858 -0.000491244C34.8756 -0.00926917 35.4611 0.101108 36.0078 0.324108C36.5544 0.547109 37.0511 0.878203 37.4684 1.2978C38.4585 2.26849 39.004 3.66081 39.004 5.21846C39.004 9.16187 36.8596 14.7615 33.6981 20.4977C34.9895 25.3511 36.9455 30.0938 39.5826 33.0605C41.308 35.0018 43.1736 35.9862 45.1251 35.9862C47.0765 35.9862 48.9421 35.0018 50.6675 33.0605C53.3046 30.0938 55.2606 25.3465 56.5445 20.4961C53.38 14.76 51.2402 9.16035 51.2402 5.21846C51.2402 3.66081 51.7857 2.26849 52.7757 1.2978C53.1957 0.879705 53.6939 0.549661 54.2415 0.326799C54.7891 0.103937 55.3752 -0.00730884 55.9659 -0.000491244C57.8857 0.0541098 60.2787 1.41762 60.6795 5.08954C61.0427 8.37622 60.5183 14.264 59.0415 20.1701C62.3447 25.9805 66.6982 31.9335 70.806 36.2046C71.021 36.428 71.1391 36.7283 71.1341 37.0393C71.1292 37.3503 71.0017 37.6467 70.7797 37.8631C70.5577 38.0795 70.2593 38.1983 69.9503 38.1933C69.6413 38.1883 69.3469 38.06 69.1318 37.8365C65.3645 33.9174 61.4013 28.656 58.169 23.2944C56.8022 27.6929 54.8899 31.8319 52.405 34.6257C50.2185 37.0858 47.7697 38.334 45.1251 38.334C42.4804 38.334 40.0332 37.0858 37.8451 34.6257ZM34.3476 2.34584C33.0124 2.38224 32.0872 3.50611 31.8883 5.35041C31.6035 7.9197 31.9305 12.3424 32.8889 17.0472C35.1914 12.4971 36.6727 8.23972 36.6727 5.21694C36.6727 4.03847 36.2207 3.34837 35.8424 2.97678C35.4562 2.58767 34.9374 2.36101 34.3913 2.3428L34.3476 2.34584ZM54.4092 2.97982C54.0295 3.35141 53.5789 4.0415 53.5789 5.21998C53.5789 8.23972 55.0587 12.491 57.3613 17.0502C58.3197 12.3484 58.6467 7.92425 58.3634 5.35496C58.1584 3.51066 57.2392 2.38679 55.9026 2.35039H55.8604C55.3147 2.36678 54.7958 2.59186 54.4092 2.97982Z" fill="url(#paint1_linear)"/>
</g>
<defs>
<linearGradient id="paint0_linear" x1="71.1298" y1="32.4339" x2="19.1123" y2="32.4339" gradientUnits="userSpaceOnUse">
<stop offset="0.18" stop-color="#0C3DDE"/>
<stop offset="0.22" stop-color="#1142E0" stop-opacity="0.89"/>
<stop offset="0.28" stop-color="#1F4EE4" stop-opacity="0.62"/>
<stop offset="0.37" stop-color="#3461EA" stop-opacity="0.2"/>
<stop offset="0.44" stop-color="#3461EA" stop-opacity="0.08"/>
<stop offset="0.49" stop-color="#3461EA" stop-opacity="0"/>
<stop offset="0.51" stop-color="#FFA073" stop-opacity="0"/>
<stop offset="0.59" stop-color="#FFA073" stop-opacity="0.13"/>
<stop offset="0.62" stop-color="#FFA072" stop-opacity="0.22"/>
<stop offset="0.71" stop-color="#FF9662" stop-opacity="0.63"/>
<stop offset="0.78" stop-color="#FF9058" stop-opacity="0.9"/>
<stop offset="0.8" stop-color="#FF8E54"/>
</linearGradient>
<linearGradient id="paint1_linear" x1="71.1346" y1="19.166" x2="19.1171" y2="19.166" gradientUnits="userSpaceOnUse">
<stop offset="0.15" stop-color="#0C3DDE"/>
<stop offset="0.19" stop-color="#123DDE"/>
<stop offset="0.24" stop-color="#243CDC"/>
<stop offset="0.3" stop-color="#413ADA"/>
<stop offset="0.37" stop-color="#6A38D8"/>
<stop offset="0.44" stop-color="#9E36D4"/>
<stop offset="0.51" stop-color="#DA33D0"/>
<stop offset="0.71" stop-color="#F16B84"/>
<stop offset="0.85" stop-color="#FF8E54"/>
</linearGradient>
<clipPath id="clip0">
<rect width="91" height="58" fill="white"/>
</clipPath>
</defs>
</svg>
