<?xml version="1.0" encoding="UTF-8" standalone="no"?>
<svg
   xmlns:dc="http://purl.org/dc/elements/1.1/"
   xmlns:cc="http://creativecommons.org/ns#"
   xmlns:rdf="http://www.w3.org/1999/02/22-rdf-syntax-ns#"
   xmlns:svg="http://www.w3.org/2000/svg"
   xmlns="http://www.w3.org/2000/svg"
   id="svg8"
   version="1.1"
   viewBox="0 0 36.752167 13.551127"
   height="13.551127mm"
   width="36.752167mm">
  <defs
     id="defs2">
    <clipPath
       clipPathUnits="userSpaceOnUse"
       id="clipPath3715">
      <path
         d="m 419.528,595.275 v -426.5 l 419.527,53.074 v 373.426 z"
         id="path3713" />
    </clipPath>
    <clipPath
       clipPathUnits="userSpaceOnUse"
       id="clipPath3935">
      <path
         d="m 430.866,514.378 h 146.309 v 80.897 H 430.866 Z"
         id="path3933" />
    </clipPath>
    <clipPath
       clipPathUnits="userSpaceOnUse"
       id="clipPath3975">
      <path
         d="m 11.338,514.378 h 146.309 v 80.897 H 11.338 Z"
         id="path3973" />
    </clipPath>
  </defs>
  <metadata
     id="metadata5">
    <rdf:RDF>
      <cc:Work
         rdf:about="">
        <dc:format>image/svg+xml</dc:format>
        <dc:type
           rdf:resource="http://purl.org/dc/dcmitype/StillImage" />
        <dc:title></dc:title>
      </cc:Work>
    </rdf:RDF>
  </metadata>
  <g
     transform="translate(15.825712,-79.46153)"
     id="layer1">
    <g
       id="g4322">
      <g
         id="g3965"
         transform="matrix(0.35277777,0,0,-0.35277777,18.155368,92.512657)">
        <path
           d="m 0,0 h -94.907 l 1.15,5.129 94.825,0.002 z"
           style="fill:#ffd100;fill-opacity:1;fill-rule:nonzero;stroke:none"
           id="path3967" />
      </g>
      <g
         id="g3969"
         transform="matrix(0.35277777,0,0,-0.35277777,-27.293345,281.96769)">
        <g
           id="g3971"
           clip-path="url(#clipPath3975)">
          <g
             id="g3977"
             transform="translate(133.9907,548.2335)">
            <path
               d="M 0,0 C -0.002,0 -0.007,0.001 -0.015,0.001 -0.908,-0.004 -1.763,-0.727 -1.951,-1.602 -1.976,-1.713 -1.987,-1.826 -1.987,-1.938 V -1.94 c 0.002,-0.708 0.514,-1.248 1.287,-1.25 0.004,0 0.006,0.002 0.006,0.002 0.893,0.005 1.747,0.732 1.937,1.603 0.022,0.114 0.035,0.225 0.035,0.331 C 1.282,-0.542 0.768,-0.003 0,0 M 1.025,-1.541 C 0.868,-2.303 0.076,-2.974 -0.694,-2.969 h -0.002 c -0.673,0.013 -1.058,0.429 -1.069,1.031 0,0.095 0.01,0.192 0.032,0.293 0.153,0.758 0.938,1.424 1.707,1.427 0.688,-0.013 1.071,-0.428 1.084,-1.036 0,-0.087 -0.012,-0.185 -0.033,-0.287"
               style="fill:#58595b;fill-opacity:1;fill-rule:nonzero;stroke:none"
               id="path3979" />
          </g>
          <g
             id="g3981"
             transform="translate(133.8614,547.403)">
            <path
               d="m 0,0 h -0.681 l -0.325,-1.527 h 0.337 l 0.104,0.493 h 0.268 l 0.219,-0.493 H 0.319 L 0.06,-0.98 c 0.212,0.071 0.378,0.228 0.433,0.477 C 0.559,-0.185 0.365,0 0,0 M 0.146,-0.523 C 0.117,-0.654 0.004,-0.746 -0.166,-0.746 H -0.5 l 0.094,0.449 h 0.328 c 0.168,0 0.254,-0.077 0.224,-0.226"
               style="fill:#58595b;fill-opacity:1;fill-rule:nonzero;stroke:none"
               id="path3983" />
          </g>
          <g
             id="g3985"
             transform="translate(105.9813,550.5309)">
            <path
               d="m 0,0 c -0.847,0.912 -0.34,2.727 0.093,4.776 l 1.481,6.959 H 7.66 l 1.102,5.18 H 2.673 l 1.079,5.17 H -1.984 L -5.744,4.298 c -0.567,-2.656 -0.779,-4.735 0.374,-6.973 1.073,-2.081 4.735,-4.068 9.372,-2.812 l 1.025,4.808 C 1.882,-1.069 0.619,-0.659 0,0"
               style="fill:#000000;fill-opacity:1;fill-rule:nonzero;stroke:none"
               id="path3987" />
          </g>
          <g
             id="g3989"
             transform="translate(57.3994,572.6157)">
            <path
               d="M 0,0 -2.738,-12.844 H -12.805 L -10.075,0 h -5.79 l -5.854,-27.571 h 5.786 l 2.021,9.552 h 10.073 l -2.028,-9.552 h 5.738 L 5.731,0 Z"
               style="fill:#000000;fill-opacity:1;fill-rule:nonzero;stroke:none"
               id="path3991" />
          </g>
          <g
             id="g3993"
             transform="translate(90.4552,565.4981)">
            <path
               d="m 0,0 c -2.008,-1.677 -3.149,-3.872 -3.888,-7.338 l -2.788,-13.116 h 5.742 L 1.38,-9.577 c 0.546,2.544 0.964,4.136 1.92,5.115 1.315,1.344 3.22,1.418 5.507,1.23 l 1.104,5.18 C 5.877,2.973 2.354,1.968 0,0"
               style="fill:#000000;fill-opacity:1;fill-rule:nonzero;stroke:none"
               id="path3995" />
          </g>
          <g
             id="g3997"
             transform="translate(135.2685,567.446)">
            <path
               d="m 0,0 h -17.92 l -1.099,-5.18 h 10.397 l -13.004,-12.241 -1.056,-4.981 h 17.921 l 1.105,5.176 h -10.458 l 13.068,12.298 z"
               style="fill:#000000;fill-opacity:1;fill-rule:nonzero;stroke:none"
               id="path3999" />
          </g>
          <g
             id="g4001"
             transform="translate(74.7853,567.8577)">
            <path
               d="m 0,0 c -1.939,0 -4.591,-0.6 -7.198,-2.646 -5.875,-4.61 -8.793,-20.574 3.825,-20.574 3.271,0 6.91,1.034 9.436,2.94 l -2.283,3.855 c -1.911,-1.468 -11.529,-4.663 -10.516,3.134 H 8.3 c 0.007,0.015 1.918,6.249 -0.838,10.02 C 5.113,-0.056 0.79,0 0,0 m 3.734,-8.549 h -9.205 c 0.324,1.239 2.279,4.289 5.909,3.955 3.904,-0.36 3.296,-3.955 3.296,-3.955"
               style="fill:#000000;fill-opacity:1;fill-rule:nonzero;stroke:none"
               id="path4003" />
          </g>
        </g>
      </g>
    </g>
  </g>
</svg>
