<?xml version="1.0" encoding="utf-8"?>
<!-- Generator: Adobe Illustrator 19.2.1, SVG Export Plug-In . SVG Version: 6.00 Build 0)  -->
<svg version="1.1" id="Layer_1" xmlns="http://www.w3.org/2000/svg" xmlns:xlink="http://www.w3.org/1999/xlink" x="0px" y="0px"
	 viewBox="0 0 200 60" style="enable-background:new 0 0 200 60;" xml:space="preserve">
<style type="text/css">
	.st0{fill:#003366;}
	.st1{fill:#FFFFFF;}
	.st2{fill:#CC3333;}
	.st3{fill:#999999;}
	.st4{fill:#006699;}
	.st5{fill:#339900;}
</style>
<g>
	<g>
		<g>
			<g>
				<g>
					<path class="st0" d="M70,8.1h5v0.9h-1.6v5.7c0,2.7,1.3,3.9,3,3.9c1.6,0,3-1,3-4.1V9.1h-1.6V8.1h4.7v0.9H81V15
						c0,3.1-1.7,4.7-4.7,4.7c-2.8,0-4.8-1.3-4.8-5.1V9.1H70V8.1z"/>
					<path class="st0" d="M84.3,18.5c0,0.7-0.5,1.2-1.2,1.2c-0.7,0-1.2-0.5-1.2-1.2c0-0.7,0.5-1.2,1.2-1.2
						C83.8,17.3,84.3,17.8,84.3,18.5z"/>
					<path class="st0" d="M86.7,16.1h1v1.4c0.8,0.9,1.5,1.3,2.3,1.3c1.1,0,1.9-0.8,1.9-1.8c0-1.9-2.6-2.3-4.2-3.8
						c-0.7-0.7-1-1.5-1-2.3c0-1.5,1.3-2.9,3.2-2.9c0.8,0,1.6,0.1,2.2,0.6V7.9H93V11H92V9.7c-0.5-0.6-1.2-1-2-1
						c-1.3,0-1.8,0.8-1.8,1.6c0,1.8,2.6,2,4.2,3.7c0.7,0.7,1,1.4,1,2.3c0,1.9-1.4,3.3-3.4,3.3c-0.9,0-1.6-0.3-2.4-0.8v0.8h-1V16.1z"
						/>
					<path class="st0" d="M97.1,18.5c0,0.7-0.5,1.2-1.2,1.2c-0.7,0-1.2-0.5-1.2-1.2c0-0.7,0.5-1.2,1.2-1.2
						C96.5,17.3,97.1,17.8,97.1,18.5z"/>
				</g>
				<g>
					<g>
						<path class="st0" d="M71.2,29.3c0.9-0.8,2.1-1.3,3-1.3c1.5,0,2.5,1.1,2.5,2.8V34c0,0.8,0.3,1.3,0.8,1.3c0.1,0,0.6-0.1,0.8-0.1
							v0.5c-0.6,0.4-1.2,0.6-1.7,0.6c-0.6,0-1-0.3-1.4-1.2c-1,0.7-1.6,1.2-2.3,1.2c-1,0-1.8-0.9-1.8-2.1c0-1.2,0.6-1.8,2.2-2.2
							l1.7-0.4v-1.1c0-0.9-0.3-1.6-1.3-1.6c-0.6,0-1.3,0.3-2.2,0.9L71.2,29.3z M72.7,34.1c0,0.6,0.4,1.1,1,1.1
							c0.4,0,0.8-0.2,1.3-0.6v-2.1C73.4,32.8,72.7,33.3,72.7,34.1z"/>
						<path class="st0" d="M78.9,35.4h1.4V29h-1.4v-0.8h3.2v0.9C83,28.4,84,28,85,28c1.3,0,2.2,0.8,2.2,2.3v5.1h1.4v0.8h-4.4v-0.8
							h1.3v-4.7c0-1.1-0.6-1.6-1.4-1.6c-0.6,0-1.3,0.3-2,0.8v5.5h1.3v0.8h-4.5V35.4z"/>
						<path class="st0" d="M94.9,35.4h-0.8c-1.9,0-3.2-0.9-3.2-3.3c0-1.9,0.8-3.1,2.1-3.1c0.6,0,1.3,0.3,1.9,0.9V35.4z M93.5,24.5
							h1.4V29c-0.8-0.7-1.6-1-2.4-1c-1.9,0-3.5,1.8-3.5,4.1c0,2.5,1.8,4.1,4.5,4.1h4.6v-0.8h-1.4V23.7h-3.2V24.5z"/>
					</g>
					<g>
						<path class="st0" d="M104.3,35.2h1.6v-9.5h-1.6v-0.9h5v0.9h-1.6v9.5h1.6v0.9h-5V35.2z"/>
						<path class="st0" d="M110.4,35.4h1.4V29h-1.4v-0.8h3.2v0.9c1.2-0.6,2.1-1.1,3.1-1.1c0.9,0,1.7,0.5,2,1.3
							c0.8-0.6,2.1-1.3,3.2-1.3c1.5,0,2.3,0.9,2.3,2.7v4.7h1.4v0.8H121v-0.8h1.3v-4.2c0-1.4-0.5-2-1.5-2c-0.6,0-1.4,0.4-2.1,0.9v5.4
							h1.4v0.8h-4.5v-0.8h1.3v-4c0-1.3-0.2-2.3-1.4-2.3c-0.7,0-1.2,0.3-2.1,0.9v5.4h1.3v0.8h-4.5V35.4z"/>
						<path class="st0" d="M126.2,35.4h1.4V29h-1.4v-0.8h3.2v0.9c1.2-0.6,2.1-1.1,3.1-1.1c0.9,0,1.6,0.5,2,1.3
							c0.8-0.6,2.1-1.3,3.2-1.3c1.5,0,2.3,0.9,2.3,2.7v4.7h1.4v0.8h-4.5v-0.8h1.3v-4.2c0-1.4-0.5-2-1.5-2c-0.6,0-1.4,0.4-2.1,0.9
							v5.4h1.4v0.8h-4.5v-0.8h1.3v-4c0-1.3-0.2-2.3-1.4-2.3c-0.7,0-1.2,0.3-2.1,0.9v5.4h1.3v0.8h-4.5V35.4z"/>
						<path class="st0" d="M142,35.4h1.4V29H142v-0.8h3.1v7.2h1.3v0.8H142V35.4z M145.1,26c0,0.6-0.5,1.1-1.1,1.1
							c-0.6,0-1.1-0.5-1.1-1.1c0-0.6,0.5-1.1,1.1-1.1C144.7,24.9,145.1,25.4,145.1,26z"/>
						<path class="st0" d="M148.9,31c0-1.4,0.6-2.3,1.7-2.3c1.1,0,1.7,0.9,1.7,2.4c0,1.4-0.6,2.3-1.7,2.3
							C149.6,33.4,148.9,32.5,148.9,31z M154.8,28.2h-2.5c-0.2,0-0.5-0.1-0.7-0.1c-0.3-0.1-0.6-0.1-1.1-0.1c-2,0-3.3,1.2-3.3,3
							c0,1.5,0.9,2.5,2.6,3v0l-0.3,0.1c-0.9,0.2-1.3,0.7-1.3,1.2c0,0.5,0.3,0.9,1,1.3c-1.6,0.5-2.3,1.2-2.3,2c0,1,1.4,2.2,3.9,2.2
							c2.4,0,4-1,4-2.6c0-0.5-0.1-0.9-0.5-1.3c-1.2-1.2-4.3-1.2-4.3-2.1c0-0.1,0-0.2,0.1-0.2c0.6-0.6,2-0.1,3.4-1.6
							c0.6-0.6,0.8-1.3,0.8-2.1c0-0.7-0.3-1.4-0.8-2h1.4V28.2z M149.7,37c2.6,0.7,3.4,1.1,3.4,1.8c0,0.3-0.2,0.6-0.6,0.8
							c-0.4,0.2-1.1,0.3-1.8,0.3c-1.4,0-2.3-0.5-2.3-1.3C148.5,38,148.8,37.6,149.7,37z"/>
						<path class="st0" d="M155.5,35.4h1.4V29h-1.4v-0.8h3.2v1.3h0c0.9-1.2,1.4-1.6,1.9-1.6c0.5,0,0.9,0.2,1.3,0.8
							c-0.2,0.8-0.4,1.4-0.7,2c-0.5-0.8-0.7-1.1-1.3-1.1c-0.5,0-0.9,0.3-1.3,0.9v4.8h1.4v0.8h-4.6V35.4z"/>
						<path class="st0" d="M166.6,32.4v2.1c-0.5,0.4-0.9,0.6-1.3,0.6c-0.6,0-1-0.5-1-1.1C164.2,33.3,164.9,32.8,166.6,32.4z
							 M163,29.9c0.9-0.6,1.6-0.9,2.2-0.9c1,0,1.3,0.6,1.3,1.6v1.1l-1.7,0.4c-1.6,0.4-2.2,1-2.2,2.2c0,1.2,0.8,2.1,1.8,2.1
							c0.7,0,1.4-0.5,2.3-1.2c0.4,0.8,0.8,1.2,1.4,1.2c0.5,0,1.1-0.2,1.7-0.6v-0.5c-0.2,0-0.7,0.1-0.8,0.1c-0.5,0-0.8-0.5-0.8-1.3
							v-3.2c0-1.7-0.9-2.8-2.5-2.8c-0.9,0-2.1,0.5-3,1.3L163,29.9z"/>
						<path class="st0" d="M169.8,29l2.8-2.9v2.2h2.2V29h-2.2v4.6c0,1.3,0.3,1.8,1.1,1.8c0.8,0,1.1-0.6,1.3-0.6
							c0.1,0,0.2,0.1,0.2,0.2c0,0.2-0.7,1.3-2.1,1.3c-1.4,0-2.2-0.9-2.2-2.6V29H169.8z"/>
						<path class="st0" d="M175.9,35.4h1.4V29h-1.4v-0.8h3.1v7.2h1.4v0.8h-4.5V35.4z M179.1,26c0,0.6-0.5,1.1-1.1,1.1
							c-0.6,0-1.1-0.5-1.1-1.1c0-0.6,0.5-1.1,1.1-1.1C178.6,24.9,179.1,25.4,179.1,26z"/>
						<path class="st0" d="M182.9,32.2c0-2.1,0.9-3.4,2.4-3.4c1.5,0,2.4,1.3,2.4,3.4c0,2.1-0.9,3.4-2.4,3.4
							C183.8,35.6,182.9,34.3,182.9,32.2z M180.9,32.2c0,2.4,1.9,4.2,4.4,4.2c2.4,0,4.4-1.8,4.4-4.2c0-2.4-1.9-4.2-4.4-4.2
							C182.8,28,180.9,29.8,180.9,32.2z"/>
						<path class="st0" d="M190.3,35.4h1.4V29h-1.4v-0.8h3.2v0.9c0.9-0.7,1.9-1.1,2.9-1.1c1.3,0,2.2,0.8,2.2,2.3v5.1h1.4v0.8h-4.4
							v-0.8h1.2v-4.7c0-1.1-0.6-1.6-1.4-1.6c-0.6,0-1.3,0.3-2,0.8v5.5h1.3v0.8h-4.5V35.4z"/>
					</g>
				</g>
				<g>
					<path class="st0" d="M111.5,18.3c-1.1,0.9-2.5,1.4-4.1,1.4c-3.4,0-5.8-2.6-5.8-5.8c0-3.5,2.5-6,5.9-6c1,0,1.9,0.2,2.7,0.5
						l0.1-0.6h0.7v3.3h-0.8c-0.3-1.4-1.3-2.2-2.8-2.2c-2.2,0-3.6,1.9-3.6,4.8c0,3.1,1.7,5.1,4.1,5.1c1.1,0,2.2-0.4,3.6-1.4V18.3z"/>
					<path class="st0" d="M112.5,18.7h1.4v-6.4h-1.4v-0.8h3.1v7.2h1.3v0.8h-4.5V18.7z M115.7,9.3c0,0.6-0.5,1.1-1.1,1.1
						c-0.6,0-1.1-0.5-1.1-1.1c0-0.6,0.5-1.1,1.1-1.1C115.2,8.3,115.7,8.8,115.7,9.3z"/>
					<path class="st0" d="M117.8,12.3l2.8-2.9v2.2h2.2v0.8h-2.2v4.6c0,1.3,0.3,1.8,1.1,1.8c0.8,0,1.1-0.6,1.3-0.6
						c0.1,0,0.2,0.2,0.2,0.2c0,0.2-0.7,1.3-2.1,1.3c-1.4,0-2.2-0.9-2.2-2.6v-4.7H117.8z"/>
					<path class="st0" d="M124,18.7h1.4v-6.4H124v-0.8h3.1v7.2h1.3v0.8H124V18.7z M127.2,9.3c0,0.6-0.5,1.1-1.1,1.1
						c-0.6,0-1.1-0.5-1.1-1.1c0-0.6,0.5-1.1,1.1-1.1C126.7,8.3,127.2,8.8,127.2,9.3z"/>
					<path class="st0" d="M129.4,11.6h6.6v0.3l-4.5,6.8h4v-1.4h0.7v2.1h-7.1v-0.3l4.5-6.8h-3.5v1.1h-0.7V11.6z"/>
					<path class="st0" d="M139,14.1c0.1-1.3,0.6-2,1.6-2c1,0,1.6,0.7,1.8,2H139z M144.2,14.9c-0.3-2.3-1.6-3.6-3.5-3.6
						c-2.2,0-3.6,1.6-3.6,4c0,2.2,1.5,4.4,4.2,4.4c1.1,0,1.7-0.2,3-1l0.1-0.9c-0.9,0.6-1.8,0.9-2.6,0.9c-1.7,0-2.7-1.6-2.7-3.9
						H144.2z"/>
					<path class="st0" d="M145.1,18.7h1.4v-6.4h-1.4v-0.8h3.2v0.9c0.9-0.7,1.9-1.1,2.9-1.1c1.3,0,2.2,0.8,2.2,2.3v5.1h1.4v0.8h-4.4
						v-0.8h1.3V14c0-1.1-0.6-1.7-1.4-1.7c-0.6,0-1.3,0.3-2,0.8v5.5h1.3v0.8h-4.5V18.7z"/>
					<path class="st0" d="M155.8,17h0.4c0.3,1.2,1.2,1.9,2.1,1.9c0.8,0,1.4-0.4,1.4-1c0-1.2-1.9-1.2-3.2-2.6
						c-0.5-0.5-0.8-1.1-0.8-1.7c0-1.3,1.2-2.3,2.6-2.3c0.6,0,1,0.1,1.6,0.5v-0.4h0.6v2.1H160c-0.2-0.9-0.8-1.3-1.6-1.3
						c-0.7,0-1.2,0.5-1.2,1c0,1.1,2,1.4,3.3,2.7c0.5,0.5,0.7,1,0.7,1.6c0,1.4-1.1,2.3-2.7,2.3c-0.8,0-1.2-0.1-2-0.6l-0.1,0.6h-0.6
						V17z"/>
					<path class="st0" d="M161.8,18.7h1.4V7.8h-1.4V7h3.2v5.4c0.8-0.6,1.9-1.1,2.9-1.1c1.2,0,2.2,0.8,2.2,2.4v5h1.4v0.8H167v-0.8
						h1.3v-4.6c0-1-0.6-1.7-1.4-1.7c-0.6,0-1.2,0.3-2,0.8v5.5h1.3v0.8h-4.5V18.7z"/>
					<path class="st0" d="M172.3,18.7h1.4v-6.4h-1.4v-0.8h3.1v7.2h1.3v0.8h-4.5V18.7z M175.5,9.3c0,0.6-0.5,1.1-1.1,1.1
						c-0.6,0-1.1-0.5-1.1-1.1c0-0.6,0.5-1.1,1.1-1.1C175,8.3,175.5,8.8,175.5,9.3z"/>
					<path class="st0" d="M180.8,13.2c0.7-0.8,1.1-1,1.8-1c1.3,0,2.2,1.4,2.2,3.7c0,1.7-0.7,3.1-2.1,3.1c-0.7,0-1.4-0.4-1.9-1.1
						V13.2z M177.6,24.1h4.5v-0.8h-1.4V19c0.6,0.4,1.3,0.7,2.1,0.7c2.9,0,3.9-2.4,3.9-4.3c0-2.9-2-4.1-3.6-4.1
						c-0.5,0-0.9,0.1-1.2,0.2c-0.4,0.1-0.7,0.4-1.1,0.8v-0.8h-3.2v0.8h1.4v11h-1.4V24.1z"/>
				</g>
				<g>
					<g>
						<path class="st0" d="M71.1,49.4H72v1.4c0.8,0.9,1.5,1.3,2.3,1.3c1.1,0,1.9-0.8,1.9-1.8c0-1.9-2.6-2.3-4.2-3.8
							c-0.7-0.7-1-1.5-1-2.3c0-1.5,1.3-2.9,3.2-2.9c0.8,0,1.6,0.2,2.2,0.6v-0.6h1v3.1h-1V43c-0.5-0.6-1.2-1-2-1
							c-1.3,0-1.8,0.8-1.8,1.6c0,1.8,2.6,2.1,4.2,3.7c0.7,0.7,1,1.4,1,2.3c0,1.9-1.4,3.3-3.4,3.3c-0.9,0-1.6-0.3-2.4-0.8V53h-0.9
							V49.4z"/>
						<path class="st0" d="M80.9,47.4c0.1-1.3,0.6-2,1.6-2c1,0,1.6,0.7,1.8,2H80.9z M86.1,48.2c-0.3-2.3-1.6-3.6-3.5-3.6
							c-2.2,0-3.6,1.6-3.6,4c0,2.2,1.5,4.4,4.2,4.4c1.1,0,1.7-0.2,3-1l0.1-0.9c-1,0.6-1.8,0.9-2.6,0.9c-1.7,0-2.7-1.6-2.7-3.9H86.1z
							"/>
						<path class="st0" d="M87,52h1.4v-6.4H87v-0.8h3.2v1.3h0c0.9-1.2,1.4-1.6,1.9-1.6c0.5,0,0.9,0.2,1.3,0.8
							c-0.1,0.8-0.4,1.4-0.7,2c-0.5-0.8-0.7-1.1-1.3-1.1c-0.5,0-0.9,0.3-1.3,0.9V52h1.4v0.8H87V52z"/>
						<path class="st0" d="M94.1,44.8h4v0.8h-1l1.9,4.5l1.6-4.5h-1.2v-0.8h3v0.8h-1.1l-2.7,7.3h-0.4l-3.2-7.3h-1V44.8z"/>
						<path class="st0" d="M103.2,52h1.4v-6.4h-1.4v-0.8h3.1V52h1.4v0.8h-4.5V52z"/>
						<path class="st0" d="M115,47.1h-0.6c-0.2-1.2-1-1.7-1.9-1.7c-1.3,0-2.1,0.9-2.1,3c0,2.3,0.9,3.6,2.5,3.6
							c1.3,0,2.1-0.9,2.2-0.9c0.2,0,0.3,0.3,0.3,0.5c0,0.3-1.3,1.5-3.1,1.5c-2.2,0-3.9-1.9-3.9-4.4c0-2.3,1.6-4,3.8-4
							c0.7,0,1.2,0.1,2,0.5l0.1-0.5h0.6V47.1z"/>
						<path class="st0" d="M118.3,47.4c0.1-1.3,0.6-2,1.6-2c1,0,1.6,0.7,1.8,2H118.3z M123.6,48.2c-0.3-2.3-1.6-3.6-3.5-3.6
							c-2.2,0-3.6,1.6-3.6,4c0,2.2,1.5,4.4,4.2,4.4c1.1,0,1.7-0.2,3-1l0.1-0.9c-0.9,0.6-1.8,0.9-2.6,0.9c-1.7,0-2.7-1.6-2.7-3.9
							H123.6z"/>
						<path class="st0" d="M124.8,50.3h0.4c0.3,1.2,1.2,1.9,2.1,1.9c0.8,0,1.4-0.4,1.4-1c0-1.2-1.9-1.2-3.2-2.6
							c-0.5-0.5-0.8-1.1-0.8-1.7c0-1.3,1.2-2.3,2.6-2.3c0.5,0,0.9,0.1,1.6,0.5v-0.4h0.6v2.1h-0.5c-0.2-0.9-0.8-1.3-1.6-1.3
							c-0.7,0-1.2,0.5-1.2,1c0,1.1,2.1,1.4,3.3,2.7c0.5,0.5,0.7,1,0.7,1.6c0,1.4-1.1,2.3-2.7,2.3c-0.8,0-1.2-0.1-2-0.6l-0.1,0.5
							h-0.5V50.3z"/>
					</g>
					<path class="st0" d="M106.4,42.6c0,0.6-0.5,1.1-1.1,1.1c-0.6,0-1.1-0.5-1.1-1.1c0-0.6,0.5-1.1,1.1-1.1
						C105.9,41.6,106.4,42,106.4,42.6z"/>
				</g>
			</g>
		</g>
	</g>
	<g>
		<circle class="st1" cx="30" cy="30" r="30"/>
		<g>
			<path class="st2" d="M48.2,19.2c-0.3,0.1-0.7,0.2-1,0.3c1.9,3.1,2.9,6.7,2.9,10.5c0,11.1-9,20.2-20.2,20.2
				c-11.1,0-20.2-9-20.2-20.2c0-4,1.2-7.8,3.2-10.9c-0.3-0.1-0.6-0.2-1-0.4C10,22,8.8,25.9,8.8,30c0,11.7,9.5,21.2,21.2,21.2
				c11.7,0,21.2-9.5,21.2-21.2C51.2,26.1,50.1,22.4,48.2,19.2z"/>
			<path class="st2" d="M18.3,13.6c3.3-2.4,7.4-3.8,11.7-3.8c4.9,0,9.4,1.7,12.9,4.6c0.4-0.1,0.8-0.2,1.2-0.3
				c-3.7-3.3-8.6-5.3-14-5.3c-4.8,0-9.3,1.6-12.8,4.3c0.2,0.1,0.3,0.1,0.5,0.2C17.9,13.4,18.1,13.5,18.3,13.6z"/>
		</g>
		<path class="st3" d="M30,0C13.4,0,0,13.4,0,30c0,16.6,13.4,30,30,30c16.6,0,30-13.4,30-30C60,13.4,46.6,0,30,0z M30,58.1
			C14.5,58.1,1.9,45.5,1.9,30C1.9,14.5,14.5,1.9,30,1.9c15.5,0,28.1,12.6,28.1,28.1C58.1,45.5,45.5,58.1,30,58.1z"/>
		<path class="st0" d="M22.8,24c-0.4-0.2-0.8-0.5-1.2-0.8c-1.3-1.2-1.6-2.4-1.2-3.8c0.2-0.8,0.6-1.3,0.5-2.1
			c-0.1-0.5-0.4-0.9-0.8-1.3c-0.9-0.8-1.9-1.3-3.4-1.8c-0.9-0.3-3.6-1.2-4.8-2.2c-0.3,0.8,0.3,1.9,1,2c-0.6,0.1-1.1,0.4-1.4,0.7
			c0.5,0.5,1.4,1.1,2.1,1.1c-0.4,0.2-0.8,0.7-0.9,1c0.7,0.3,1.7,0.6,2.5,0.6c-0.3,0.3-0.6,0.6-0.8,0.9c0.5,0.2,1.6,0.6,2.6,0.7
			c-0.4,0.2-0.9,0.8-1.2,1.2c0.6,0.3,1.8,0.4,2.6,0.5c-0.5,0.3-1.1,0.9-1.4,1.4c0.6,0.3,1.6,0.6,2.4,0.5c-0.4,0.4-0.7,0.9-0.9,1.4
			c0.6,0.1,1.3,0.1,2.1,0c-0.5,0.6-0.7,1.4-0.7,2c0.6,0,1.5-0.2,2.1-0.5c-0.1,0.5-0.1,1.1,0.1,1.6c0.2-0.1,0.5-0.2,0.9-0.3
			C22.8,25.7,22.8,24.7,22.8,24z"/>
		<path class="st0" d="M48.6,13.3c-1.2,1.1-3.1,1.4-5.1,2c-1.5,0.5-2.4,0.8-3.8,1.9c-0.4,0.3-0.8,0.8-0.7,1.5c0,0.9,0.2,1.2,0.2,2.4
			c0,0.9-0.3,1.6-0.6,2c-0.4,0.4-0.9,0.8-1.3,1c0,0.7-0.1,1.5-0.1,2.3c0.3,0.2,0.7,0.3,1,0.4c0.2-0.5,0.2-1.1,0.1-1.6
			c0.6,0.4,1.4,0.5,2.1,0.5c-0.1-0.6-0.3-1.4-0.7-2c0.8,0.1,1.5,0.1,2.1,0c-0.2-0.5-0.4-1-0.9-1.4c0.8,0,1.9-0.3,2.4-0.5
			c-0.3-0.5-0.9-1.1-1.4-1.4c0.8-0.1,2-0.2,2.6-0.5c-0.3-0.4-0.8-1-1.2-1.2c1-0.1,2.1-0.4,2.6-0.7c-0.2-0.3-0.5-0.7-0.8-0.9
			c0.9-0.1,1.8-0.2,2.5-0.6c-0.1-0.3-0.6-0.8-0.9-1C48.6,15.1,48.6,14.1,48.6,13.3z"/>
		<path class="st0" d="M40.1,15.4c-2.9-2-6.4-3.2-10.1-3.2c-3.4,0-6.6,1-9.3,2.7c0.7,0.5,1.1,1.1,1.2,1.7c0.1,0.5,0.1,1.2-0.2,2.1
			c-0.3,1-0.5,2,0.2,3c0.7,1,1.7,1.5,2.4,1.6l0,0c1-0.2,2.1-0.3,3.3-0.4l0,0c0.1-0.5,0.6-0.9,1-1.2c0.6-0.5,0.5-0.9,0.3-1.3
			c-0.1-0.3-0.3-0.5-0.7-0.6c-0.3-0.1-1.3-0.3-1.3,0.4c-0.2-0.2-0.3-0.6-0.2-1c0.1-0.6,1.1-0.7,1.3-0.7c-0.2-0.2-0.1-0.4,0.3-0.5
			c0.5-0.1,1-0.2,1.4-0.1c0.9,0,1.1,0.3,1.6,0.7c0.6,0.5,1.3,0.7,1.7,0.4c-0.2,0.5-0.9,0.8-1.4,0.7c0.2,0.7,0.3,1.3,0.4,2
			c0,0.3,0.1,0.9,0.2,1.3c1.3,0.1,2.6,0.3,3.7,0.5l0,0c0.5-0.1,0.9-0.4,1.4-0.9c0.4-0.5,0.8-1.1,0.6-2.6c0-0.4-0.3-1.5-0.2-2
			C37.9,16.8,38.8,16.1,40.1,15.4z"/>
		<path class="st0" d="M28.3,18.6c0.2,0.1,0.3,0.1,0.3,0.1c0,0,0.1,0.1,0.1,0.1c0,0,0.1,0.1,0.1,0.1c0.1,0,0.3-0.1,0.5-0.2
			c0.2-0.1,0.5-0.1,0.5-0.1C28.9,18.4,28.8,18.7,28.3,18.6z"/>
		<path class="st4" d="M29.5,32.6l-0.4-0.2l-0.2-0.6l-0.5-0.2l-0.6-0.5l-0.3,0.4L27,31.6L26.7,32l-0.4,0.4l-0.6,0.3l-0.4,0.7
			l-0.2,0.3L24.7,34l-0.2-0.2L24.3,34L24,34.5c-0.1-0.4-0.2-0.7-0.3-1.3c-0.1-1.2-0.2-2.6-0.2-4.1c1.9-0.4,4.3-0.7,6.3-0.7v4.5
			C29.7,32.9,29.6,32.8,29.5,32.6z"/>
		<path class="st5" d="M29.8,34.8h-5.7c0.1,0.2,0.2,0.3,0.3,0.5c0.4,0.6,1,1,1.7,1.2c1,0.3,1.6,0.5,2.1,0.7l0.6,0.2
			c0.5,0.1,0.8,0.3,1,0.6V34.8z"/>
		<path class="st0" d="M35.8,32.6c0.2-0.1,0.3-0.3,0.6-0.4c0-0.5,0.1-1.1,0.1-1.7c-0.1,0-0.1,0.1-0.2,0.2c-0.3,0.2-0.6,0.5-1.2,0.5
			c-0.6,0-0.9-0.2-1.2-0.4c-0.2-0.1-0.4-0.3-0.7-0.3c-0.3,0-0.6,0.2-0.9,0.3c-0.3,0.2-0.6,0.4-1.1,0.4c-0.4,0-0.7-0.1-1-0.3v1.6
			c0.1,0,0.1,0.1,0.2,0.1c0.3,0.2,0.5,0.3,0.8,0.3c0.2,0,0.4-0.1,0.7-0.3c0.3-0.2,0.7-0.4,1.2-0.4c0.5,0,0.8,0.2,1.1,0.4
			c0.3,0.2,0.5,0.3,0.8,0.3C35.4,32.9,35.6,32.8,35.8,32.6z"/>
		<path class="st0" d="M31.2,36.2c-0.4,0-0.7-0.1-1-0.3v2c0.2-0.2,0.5-0.4,1-0.6l0.6-0.2c0.5-0.1,1.1-0.3,2.1-0.7
			c0.3-0.1,0.6-0.2,0.8-0.4c-0.4-0.1-0.6-0.2-0.9-0.4c-0.2-0.1-0.4-0.3-0.7-0.3c-0.3,0-0.6,0.2-0.9,0.3C32,36,31.6,36.2,31.2,36.2z"
			/>
		<path class="st4" d="M35.8,30.1c0.2-0.2,0.4-0.3,0.7-0.4c0-0.2,0-0.4,0-0.6c-1.9-0.4-4.3-0.7-6.3-0.7v1.7c0.1,0,0.1,0.1,0.2,0.1
			c0.3,0.2,0.5,0.3,0.8,0.3c0.2,0,0.4-0.1,0.7-0.3c0.3-0.2,0.7-0.4,1.2-0.4c0.5,0,0.8,0.2,1.1,0.4c0.3,0.2,0.5,0.3,0.8,0.3
			C35.4,30.5,35.6,30.3,35.8,30.1z"/>
		<path class="st4" d="M30.2,33.4v1.7c0.1,0,0.1,0.1,0.2,0.1c0.3,0.2,0.5,0.3,0.8,0.3c0.2,0,0.4-0.1,0.7-0.3
			c0.3-0.2,0.7-0.4,1.2-0.4c0.5,0,0.8,0.2,1.1,0.4c0.3,0.2,0.5,0.3,0.8,0.3c0.3,0,0.4-0.1,0.6-0.2c0.4-0.5,0.6-1.2,0.6-2
			c0,0,0-0.1,0-0.1c0,0,0,0,0,0c-0.3,0.2-0.6,0.5-1.2,0.5c-0.6,0-0.9-0.2-1.2-0.4c-0.2-0.1-0.4-0.3-0.7-0.3c-0.3,0-0.6,0.2-0.9,0.3
			c-0.3,0.2-0.6,0.4-1.1,0.4C30.8,33.7,30.5,33.6,30.2,33.4z"/>
		<path class="st0" d="M23.4,28.7c-0.1-1.7-0.2-3.3-0.2-4.7c2-0.5,4.7-0.8,6.8-0.8c2.1,0,4.8,0.3,6.8,0.8c0,1.3-0.1,3-0.2,4.7
			C34.7,28.3,32.2,28,30,28C27.8,28,25.3,28.3,23.4,28.7z"/>
		<polygon class="st1" points="24.8,25.1 24.8,24.8 24.5,24.6 24.9,24.6 24.9,24.2 25,24.6 25.4,24.5 25.1,24.7 25.3,25 25,24.9 		
			"/>
		<polygon class="st1" points="27,24.8 26.7,24.6 26.4,24.9 26.5,24.5 26.2,24.4 26.5,24.4 26.6,24 26.7,24.3 27.1,24.3 26.8,24.5 
					"/>
		<polygon class="st1" points="28.6,24.7 28.3,24.5 28.1,24.7 28.2,24.4 27.9,24.2 28.2,24.2 28.3,23.9 28.4,24.2 28.8,24.2 
			28.5,24.4 		"/>
		<polygon class="st1" points="30.3,24.7 30,24.4 29.7,24.7 29.9,24.3 29.6,24.1 29.9,24.2 30,23.8 30.1,24.2 30.5,24.1 30.2,24.3 
					"/>
		<polygon class="st1" points="35,24.9 34.7,25 34.9,24.7 34.6,24.5 35,24.6 35.1,24.2 35.2,24.6 35.5,24.6 35.2,24.8 35.3,25.1 		
			"/>
		<polygon class="st1" points="33.2,24.5 32.9,24.3 33.3,24.3 33.4,24 33.5,24.4 33.8,24.4 33.5,24.5 33.6,24.9 33.3,24.6 33,24.8 
					"/>
		<polygon class="st1" points="31.5,24.4 31.2,24.2 31.6,24.2 31.7,23.9 31.8,24.2 32.2,24.2 31.8,24.4 31.9,24.7 31.7,24.5 
			31.4,24.7 		"/>
		<polygon class="st1" points="25,27.8 25.1,27.5 24.7,27.3 25.1,27.3 25.1,26.9 25.3,27.2 25.6,27.2 25.4,27.4 25.6,27.7 
			25.2,27.6 		"/>
		<polygon class="st1" points="27.2,27.5 26.8,27.3 26.6,27.6 26.7,27.3 26.4,27.1 26.7,27.1 26.8,26.7 26.9,27 27.3,27 27,27.2 		
			"/>
		<polygon class="st1" points="28.7,27.4 28.5,27.2 28.2,27.5 28.3,27.1 28,26.9 28.3,26.9 28.4,26.6 28.5,26.9 28.9,26.9 
			28.6,27.1 		"/>
		<polygon class="st1" points="30.3,27.4 30.1,27.2 29.8,27.4 29.9,27.1 29.6,26.9 30,26.9 30.1,26.5 30.2,26.9 30.5,26.9 
			30.2,27.1 		"/>
		<polygon class="st1" points="34.9,27.6 34.6,27.8 34.7,27.4 34.5,27.2 34.8,27.3 35,26.9 35,27.3 35.4,27.3 35,27.5 35.1,27.8 		
			"/>
		<polygon class="st1" points="33.1,27.2 32.9,27 33.2,27.1 33.3,26.7 33.4,27.1 33.8,27.1 33.4,27.3 33.5,27.6 33.3,27.4 33,27.6 
					"/>
		<polygon class="st1" points="31.5,27.1 31.2,26.9 31.6,26.9 31.7,26.6 31.8,26.9 32.1,26.9 31.8,27.1 31.9,27.5 31.7,27.2 
			31.4,27.4 		"/>
		<polygon class="st1" points="25.8,26.2 25.9,25.9 25.5,25.7 25.9,25.7 26,25.3 26.1,25.7 26.5,25.6 26.2,25.8 26.3,26.2 26,26 		
			"/>
		<polygon class="st1" points="24.2,26.5 24.3,26.1 23.9,26 24.3,25.9 24.3,25.6 24.5,25.9 24.8,25.8 24.6,26.1 24.8,26.4 
			24.4,26.2 		"/>
		<polygon class="st1" points="27.9,26 27.6,25.8 27.4,26.1 27.5,25.7 27.2,25.5 27.5,25.5 27.6,25.2 27.7,25.5 28.1,25.5 
			27.8,25.7 		"/>
		<polygon class="st1" points="29.5,25.9 29.2,25.7 29,26 29.1,25.6 28.8,25.4 29.1,25.4 29.2,25.1 29.3,25.4 29.7,25.4 29.4,25.6 
					"/>
		<polygon class="st1" points="31.1,26 30.8,25.7 30.6,25.9 30.7,25.6 30.4,25.4 30.8,25.4 30.9,25.1 30.9,25.4 31.3,25.4 31,25.6 
					"/>
		<polygon class="st1" points="35.6,26.2 35.3,26.4 35.5,26.1 35.3,25.8 35.6,25.9 35.8,25.6 35.8,26 36.1,26 35.8,26.1 35.9,26.5 
					"/>
		<polygon class="st1" points="33.9,25.9 33.6,25.6 34,25.7 34.1,25.3 34.2,25.7 34.5,25.7 34.2,25.9 34.3,26.2 34,26 33.7,26.2 		
			"/>
		<polygon class="st1" points="32.3,25.7 32,25.5 32.4,25.5 32.5,25.2 32.6,25.5 32.9,25.5 32.6,25.7 32.7,26.1 32.4,25.8 32.1,26 
					"/>
		<path class="st0" d="M52.2,19.2c0.8-0.4,1.8-0.2,2,0.4c0.2,0.6-0.3,1.4-1.1,1.7c-0.8,0.4-1.8,0.2-2-0.4
			C50.9,20.4,51.4,19.6,52.2,19.2z M53.5,22.1c1-0.5,1.5-1.6,1.1-2.6c-0.4-1-1.6-1.4-2.7-1c-1,0.5-1.5,1.6-1.1,2.6
			C51.3,22.1,52.4,22.5,53.5,22.1z"/>
		<path class="st0" d="M52,24.8l-0.4-1.6l0.2-0.1l0.1,0.4l3.3-0.8l-0.1-0.4l0.2-0.1l0.6,2.4l0.2,0l0.1,0.3l-0.9,0.2l-0.1-0.3
			l0.4-0.1l-0.3-1.2L54,23.9l0.2,0.9l0.4-0.1l0.1,0.3l-1.1,0.3L53.5,25l0.4-0.1l-0.2-0.9l-1.5,0.4l0.1,0.4L52,24.8z"/>
		<path class="st0" d="M5.4,20.6L5.2,21l2.2,0.6c0.6,0.2,1,0.5,1.1,1.1c0,0.3,0,0.6-0.1,0.9c-0.3,0.9-1,1.4-1.8,1.1l-2.3-0.7
			l-0.1,0.4l-0.2-0.1l0.5-1.6l0.2,0.1l-0.1,0.4L6.6,24c0.6,0.2,0.9,0.1,1.1-0.1C7.9,23.8,8,23.6,8,23.5c0.2-0.7-0.1-1.2-0.8-1.4
			l-2.1-0.6L5,21.9l-0.2-0.1l0.4-1.3L5.4,20.6z"/>
		<path class="st0" d="M9.1,21.5c-0.1,0.2-0.3,0.3-0.5,0.2c-0.2-0.1-0.3-0.3-0.2-0.5C8.5,21,8.7,20.9,8.9,21
			C9.1,21,9.2,21.3,9.1,21.5z"/>
		<path class="st0" d="M9.9,19.8l-0.2,0.3l-0.9-0.5l0.2-0.3l0.4,0.2c0.3-0.1,0.5-0.3,0.6-0.5c0.2-0.3,0.1-0.7-0.2-0.8
			c-0.2-0.1-0.5-0.1-1.1,0.2c-0.6,0.3-0.7,0.4-0.9,0.4c-0.2,0-0.5,0-0.7-0.1c-0.6-0.3-0.7-1-0.4-1.6c0.1-0.2,0.2-0.3,0.4-0.5L7,16.5
			l0.2-0.3l0.9,0.5L7.9,17l-0.4-0.2c-0.3,0.1-0.4,0.3-0.5,0.4c-0.2,0.3-0.1,0.6,0.2,0.7c0.2,0.1,0.4,0.1,1-0.3
			c0.3-0.2,0.5-0.3,0.5-0.3c0.2-0.1,0.3-0.1,0.5-0.1c0.2,0,0.4,0,0.6,0.2c0.6,0.3,0.8,1,0.4,1.6c-0.2,0.3-0.4,0.5-0.6,0.6L9.9,19.8z
			"/>
		<path class="st0" d="M11.4,17.1c0,0.2-0.2,0.4-0.4,0.4c-0.2,0-0.4-0.2-0.4-0.4c0-0.2,0.2-0.4,0.4-0.4
			C11.3,16.7,11.4,16.9,11.4,17.1z"/>
		<path class="st0" d="M20.7,9.4l-2.5,1.3l-0.1-0.2l0.4-0.2l-1.6-3.1l-0.4,0.2l-0.1-0.2l2.2-1.1l-0.1-0.1l0.3-0.1l0.4,0.8l-0.3,0.1
			l-0.2-0.4l-1.1,0.6l0.6,1.3l0.8-0.4l-0.2-0.4l0.3-0.2l0.5,1l-0.3,0.2l-0.2-0.4l-0.9,0.4l0.7,1.3l1.2-0.6L20,8.8l0.3-0.1L20.7,9.4z
			"/>
		<path class="st0" d="M23.1,8.5l-1.6,0.5l-0.1-0.2l0.4-0.1l-1.1-3.3l-0.4,0.1l-0.1-0.2L22,4.7c0.7-0.2,1.3,0,1.5,0.7
			C23.7,6,23.3,6.7,22.7,7c-0.1,0-0.2,0-0.3,0.1l-0.1-0.3c0.1,0,0.1,0,0.2,0c0.4-0.1,0.5-0.5,0.3-1c-0.2-0.5-0.5-0.7-0.9-0.6
			l-0.3,0.1l1.1,3.2l0.5-0.2L23.1,8.5z"/>
		<path class="st0" d="M25.1,6.3l0.3-1.6l0.8,1.4L25.1,6.3z M28,7.2l-0.2,0l-2.1-3.5l-0.4,0.1l-0.9,4L24,7.9l0,0.2l1.2-0.2l0-0.2
			l-0.5,0.1l0.2-1l1.4-0.2L27,7.4l-0.4,0.1l0,0.2L28,7.4L28,7.2z"/>
		<path class="st0" d="M29.7,3.8l0.4,0c0.4,0,0.7,0.3,0.7,0.8c0,0.5-0.3,0.8-0.7,0.8l-0.4,0L29.7,3.8z M32.1,7.2l-0.2,0
			c-0.1,0-0.2-0.1-0.3-0.3l-0.8-1.3c0.6-0.2,0.8-0.5,0.8-1.1c0-0.3-0.1-0.6-0.3-0.8c-0.2-0.2-0.5-0.3-1-0.3l-1.8,0v0.3l0.5,0l0,3.4
			l-0.5,0l0,0.3l1.7,0V7.2l-0.4,0l0-1.5l0.2,0l0.9,1.4c0.2,0.3,0.3,0.4,0.6,0.4l0.8,0L32.1,7.2z"/>
		<path class="st0" d="M34.8,7.9l-1.9-0.3l0-0.2l0.6,0.1l0.6-3.3l-1-0.2L33,4.5l-0.3-0.1l0.2-1l0.3,0.1l0,0.2l2.8,0.5l0-0.2L36.3,4
			l-0.2,1l-0.3-0.1l0.1-0.5l-1-0.2l-0.6,3.3l0.6,0.1L34.8,7.9z"/>
		<path class="st0" d="M40.4,9.8l-1.7-0.6l0.1-0.2l0.5,0.2l0.9-2.4L38,8.9l-0.3-3.2l-0.9,2.4l0.5,0.2l-0.1,0.2L35.8,8l0.1-0.2
			L36.4,8l1.2-3.2l-0.5-0.2l0.1-0.2l1,0.4l0.3,3.1l2.2-2.1l1.1,0.4l-0.1,0.2l-0.5-0.2L40,9.4l0.5,0.2L40.4,9.8z"/>
		<path class="st0" d="M43.3,11.7l-2.4-1.5l0.1-0.2l0.4,0.2l1.9-2.9l-0.4-0.2L43,6.8l2.1,1.3L45.2,8l0.3,0.2L45,9l-0.3-0.2l0.2-0.4
			l-1-0.7L43.1,9l0.8,0.5l0.2-0.3l0.3,0.2l-0.6,1l-0.3-0.2l0.2-0.4l-0.8-0.5l-0.8,1.2l1.1,0.7l0.2-0.4l0.3,0.2L43.3,11.7z"/>
		<path class="st0" d="M16.8,9.3c-0.7-0.9-1.9-1.1-2.8-0.4L12.5,10l0.1,0.2L13,9.9l2,2.8c0.1,0,0.2,0.1,0.3,0.1l1-0.7
			c0.5-0.3,0.7-0.7,0.8-1.2C17.3,10.2,17.1,9.7,16.8,9.3z M16,11.9l-0.4,0.3l-1.9-2.6l0.4-0.3c0.6-0.4,1.5-0.2,2,0.5
			C16.7,10.5,16.6,11.4,16,11.9z"/>
		<path class="st0" d="M48.4,10.9l-0.2,0.2l0.3,0.3l-1.7,1.9l0.4-3.3l-0.9-0.8l-0.2,0.2l0.3,0.3l-0.1,0.4l-2.1,2.3l-0.4-0.3
			l-0.2,0.2l1,0.9l0.2-0.2l-0.3-0.3l1.8-1.9l-0.4,3.1c0.4-0.1,0.8-0.2,1.2-0.3c0,0,0.1,0,0.1,0l1.5-1.7l0.4,0.3l0.2-0.2L48.4,10.9z"
			/>
		<path class="st0" d="M52.4,15.2l-0.1,0.1l-1.7-2.3l0.1-0.1l-0.2-0.3l-0.8,0.6l0.2,0.3l0.4-0.3l0.6,0.8l-2.7,2L48.1,16
			c-0.1,0-0.2,0.1-0.2,0.1l1,1.3l0.2-0.2l-0.3-0.5l2.7-2l0.6,0.8l-0.4,0.3l0.2,0.3l0.8-0.6L52.4,15.2z"/>
		<path class="st0" d="M35,56.3l-0.3,0.1l-0.2-1.1l0.3-0.1l0.1,0.4c0.3,0.2,0.5,0.2,0.8,0.1c0.4-0.1,0.6-0.4,0.5-0.7
			c-0.1-0.3-0.3-0.4-0.9-0.6c-0.7-0.2-0.7-0.3-0.9-0.4c-0.2-0.1-0.3-0.4-0.4-0.6c-0.1-0.6,0.2-1.2,1-1.3c0.2,0,0.4-0.1,0.7,0l0-0.2
			l0.3-0.1l0.2,1l-0.3,0.1l-0.1-0.4c-0.3-0.1-0.4-0.1-0.7-0.1c-0.3,0.1-0.5,0.3-0.4,0.6c0.1,0.2,0.2,0.3,0.9,0.6
			c0.3,0.1,0.5,0.2,0.6,0.2c0.2,0.1,0.3,0.2,0.4,0.3c0.2,0.2,0.2,0.3,0.3,0.6c0.1,0.7-0.2,1.2-0.9,1.4c-0.3,0.1-0.6,0.1-0.9,0
			L35,56.3z"/>
		<path class="st0" d="M41,54.4l-2.6,1l-0.1-0.2l0.4-0.2l-1.3-3.2L37,52l-0.1-0.2l2.3-0.9l-0.1-0.2l0.3-0.1l0.3,0.9l-0.3,0.1
			l-0.2-0.4l-1.2,0.5l0.5,1.3l0.9-0.3l-0.1-0.4l0.3-0.1l0.4,1.1l-0.3,0.1l-0.2-0.4l-0.9,0.3l0.5,1.4l1.2-0.5l-0.2-0.4l0.3-0.1
			L41,54.4z"/>
		<path class="st0" d="M45,51.9c-0.3,0.4-0.6,0.6-1,0.9c-1.1,0.7-2.3,0.4-2.9-0.6c-0.6-1-0.3-2.2,0.7-2.8c0.3-0.2,0.6-0.3,1-0.3
			l-0.1-0.2l0.3-0.2l0.6,0.9l-0.3,0.2l-0.2-0.3c-0.4,0-0.6,0-0.9,0.2c-0.7,0.4-0.8,1.3-0.3,2.2c0.5,0.8,1.4,1.1,2.1,0.7
			c0.3-0.2,0.4-0.3,0.6-0.6l-0.2-0.4l0.3-0.2L45,51.9z"/>
		<path class="st0" d="M46.8,45.8l-0.4,0.3l1.5,1.7c0.5,0.5,0.6,1,0.4,1.5c-0.1,0.3-0.3,0.5-0.5,0.7c-0.7,0.7-1.5,0.7-2.1,0.1
			l-1.6-1.8l-0.3,0.3l-0.2-0.2l1.2-1.1l0.2,0.2l-0.3,0.3l1.5,1.6c0.4,0.4,0.7,0.6,1,0.5c0.2,0,0.3-0.1,0.4-0.3
			c0.5-0.5,0.6-1.1,0.1-1.6l-1.5-1.6l-0.4,0.3l-0.2-0.2l1-0.9L46.8,45.8z"/>
		<path class="st0" d="M53.5,42.3l-0.8,1.5l-0.2-0.1l0.2-0.4l-3-1.6L49.5,42l-0.2-0.1l0.8-1.5l0.2,0.1l-0.2,0.4l3,1.6l0.2-0.4
			L53.5,42.3z"/>
		<path class="st0" d="M55.1,38.7l-0.7,1.8l-0.2-0.1l0.2-0.5l-3.1-1.2l-0.4,1l0.5,0.2l-0.1,0.3l-1-0.4l0.1-0.3l0.2,0.1l1-2.7
			l-0.2-0.1l0.1-0.3l1,0.4l-0.1,0.3L51.9,37l-0.4,1l3.1,1.2l0.2-0.5L55.1,38.7z"/>
		<path class="st0" d="M56.1,34.3l-0.3,1.6l-0.2,0l0.1-0.4L54,35.1L52,36L52,36.3l-0.2,0l0.3-1.6l0.2,0l-0.1,0.4l1.4-0.6l-1.1-1
			L52.4,34l-0.2,0l0.3-1.4l0.2,0l-0.1,0.4l1.4,1.3l1.8,0.3l0.1-0.4L56.1,34.3z"/>
		<path class="st0" d="M52.1,44.4l-0.1,0.2c-0.1,0.1-0.2,0.1-0.4,0.1L50,44.6c0.2-0.6,0.1-1-0.3-1.3c-0.3-0.2-0.5-0.3-0.8-0.2
			c-0.3,0-0.5,0.2-0.8,0.6L47,45.2l0.2,0.1l0.3-0.4l2.8,2.1l-0.3,0.4l0.2,0.1l1-1.3L50.9,46l-0.3,0.4l-1.2-0.9l0.1-0.1l1.7,0.1
			c0.4,0,0.4,0,0.7-0.3l0.5-0.6L52.1,44.4z M48,44.4l0.2-0.3c0.3-0.3,0.6-0.4,1-0.1c0.4,0.3,0.5,0.7,0.2,1l-0.2,0.3L48,44.4z"/>
		<path class="st0" d="M4.7,38l-0.4-1.6l0.2-0.1l0.1,0.4l1.5-0.4l-0.5-1.9l-1.5,0.4l0.1,0.4l-0.2,0.1l-0.4-1.6l0.2-0.1L4,34.1
			l3.3-0.8l-0.1-0.4l0.2-0.1l0.4,1.6l-0.2,0.1L7.6,34l-1.5,0.4l0.5,1.9L8,35.9l-0.1-0.4l0.2-0.1l0.4,1.6l-0.2,0.1l-0.1-0.4l-3.3,0.8
			L5,37.9L4.7,38z"/>
		<path class="st0" d="M7,38.9c0.8-0.4,1.8-0.2,2,0.3c0.2,0.5-0.3,1.4-1.1,1.7c-0.8,0.4-1.8,0.2-2-0.3C5.7,40.1,6.2,39.3,7,38.9z
			 M8.3,41.7c1-0.5,1.5-1.6,1-2.6c-0.5-1-1.6-1.4-2.7-0.9c-1,0.5-1.5,1.6-1,2.6C6.1,41.8,7.3,42.2,8.3,41.7z"/>
		<path class="st0" d="M9.8,47.4l-1-1.4L9,45.8l0.3,0.4l2.1-1.5l-3.1,0.6l1.5-2.8l-2,1.5l0.3,0.4l-0.2,0.1l-0.8-1.1l0.2-0.1l0.3,0.4
			l2.8-2l-0.3-0.4l0.2-0.1l0.6,0.9l-1.4,2.8l3-0.6l0.7,1l-0.2,0.1l-0.3-0.4l-2.8,2l0.3,0.4L9.8,47.4z"/>
		<path class="st0" d="M12.9,50.5l-2.1-1.9l0.2-0.2l0.3,0.3l2.3-2.5l-0.3-0.3l0.2-0.2l1.8,1.7l0.1-0.1l0.2,0.2L15,48.1l-0.2-0.2
			l0.3-0.3l-0.9-0.8l-1,1l0.7,0.6l0.3-0.3l0.2,0.2l-0.8,0.9L13.4,49l0.3-0.3L13,48l-1,1.1l1,0.9l0.3-0.3l0.2,0.2L12.9,50.5z"/>
		<path class="st0" d="M16.5,52.9l-2.3-1.6l0.1-0.2l0.4,0.3l1.9-2.9l-0.4-0.3l0.1-0.2l1.4,0.9l-0.1,0.2L17.2,49l-1.9,2.8l1.1,0.7
			l0.2-0.4l0.3,0.2L16.5,52.9z"/>
		<path class="st0" d="M18.9,52.4l1.2-1.1l-0.1,1.6L18.9,52.4z M20.8,54.8l-0.2-0.1l0.2-4.1l-0.3-0.2l-3,2.8l-0.3-0.2L17,53.3
			l1.1,0.5l0.1-0.2l-0.4-0.2l0.8-0.7l1.3,0.6l-0.1,1l-0.4-0.2l-0.1,0.2l1.3,0.6L20.8,54.8z"/>
		<path class="st0" d="M24.9,56.2l-0.4-0.1l-1.3-3.3l-0.6,2.5l0.5,0.1L23,55.6l-1.3-0.3l0.1-0.2l0.5,0.1l0.7-3.1l-0.1-0.3l-0.4-0.1
			l0.1-0.2l1.2,0.3l1.2,3.1l0.6-2.4L25,52.3l0.1-0.2l1.3,0.3l-0.1,0.2l-0.5-0.1L24.9,56.2z"/>
		<path class="st0" d="M28.8,52.5l-1.9-0.1l0,0.3l0.5,0l-0.1,3.4h0l-0.5,0l0,0.3l1.9,0.1l0,0h0c0.6,0,1-0.1,1.4-0.5
			c0.4-0.4,0.7-0.9,0.7-1.4C30.8,53.4,29.9,52.6,28.8,52.5z M29.9,54.5c0,0.9-0.6,1.6-1.4,1.6l-0.5,0l0.1-3.3l0.5,0
			C29.4,52.9,29.9,53.6,29.9,54.5z"/>
		<path class="st0" d="M49.1,32.5l-1.5,0.5l0.3,0.1l-0.5,0.3c0.1-0.3,0.1-0.6,0.1-0.9l0.8-0.7l0,0.4l0.9-1.2l-1.4,0.6l0.3,0.1
			l-0.6,0.5c0-0.4,0.1-0.7,0.1-1.1l0.8-0.9l0.1,0.4l0.7-1.3L48,30l0.4,0l-0.6,0.7c0-0.2,0-0.5,0-0.7c0-1.8-0.3-3.5-0.7-5.1
			c-0.8,0.1-1.6-0.2-2-0.3c1,0.6,1.4,1.3,1.5,2c-0.8,0.2-1.9-0.1-2.5-0.6c0.6,0.5,1,1.3,1,2.2c-0.8,0-1.6-0.4-2.2-0.9
			c0.4,0.4,0.8,1.5,0.7,2.2c-0.7-0.1-1.5-0.5-2-1.1c0.4,0.8,0.6,1.5,0.5,2.2c-0.7-0.1-1.2-0.3-1.9-0.9c0.3,0.8,0.4,1.5,0.3,2.1
			c-0.8-0.3-1.4-0.6-1.8-1.4c0.2,0.7,0.4,1.6,0.2,2.1c-0.7-0.2-1.1-0.6-1.5-1.3c0.4,0.7,0.3,1.6,0.2,2.1c-0.3-0.1-0.7-0.3-0.9-0.5
			c0,0.1,0,0.3,0,0.4c0,0.5-0.1,1-0.3,1.4c0.1,0.1,0.2,0.2,0.2,0.2c0.4,0.4,0.9,0.8,1.2,0.9c-0.2,0-0.4,0.2-0.6,0.2
			c0.3,0.3,0.8,0.4,1.1,0.7c-0.3,0-0.3,0.2-0.6,0.2c0.6,0.5,1.1,0.5,1.4,0.5c0.1,0,0.5,0.1,0.8,0c0.3,0,0.6,0.1,0.8,0.2l3.2-6.5
			l-0.4,0.1l1-1.2l-0.3,1.5l-0.2-0.3l-3.2,6.5c0.1,0.1,0.1,0.2,0.1,0.3c0,0,0,0,0,0l0.1-0.1l0,0l5.2-4.1L46,33.6l1.4-0.6l-0.9,1.2
			l0-0.4l-5.2,4.1c0.1,0,0.3,0.1,0.3,0.1c0.1,0.1,0.1,0.2,0,0.5c-0.1,0.2-0.1,0.3-0.3,0.3c0,0-0.1,0-0.2,0c0,0,0.1,0.1,0.1,0.1
			c0,0.1,0.1,0.2-0.1,0.4c-0.2,0.2-0.3,0.3-0.5,0.2c-0.1,0-0.1-0.1-0.1-0.1c0,0.1,0,0.1,0,0.2c0,0.2-0.1,0.3-0.3,0.3
			c-0.3,0.1-0.5,0.1-0.6-0.1c-0.2-0.3-0.1-0.6,0-0.7c0,0.1,0,0.2,0,0.3c0,0.1,0.1,0.3,0.3,0.3c0.1,0,0.3-0.1,0.4-0.1
			c0.1-0.1,0.1-0.2,0-0.3c0-0.1,0-0.1-0.1-0.2c0.1,0,0.2,0.1,0.3,0.2c0.1,0.1,0.2,0.1,0.3,0c0.1-0.1,0.2-0.2,0.2-0.3
			c0.1-0.2-0.1-0.3-0.3-0.4c0.2,0,0.3,0.1,0.5,0.1c0.2,0,0.3-0.3,0.3-0.4c0-0.1-0.1-0.2-0.2-0.2c-0.1,0-0.2,0-0.3,0c0,0,0,0,0,0.1
			c0,0.1-0.1,0.2-0.2,0.3c-0.1,0-0.2,0-0.1,0c0.1-0.1,0.2-0.4,0-0.6c-0.1-0.1-0.3-0.2-0.6-0.2c-0.3,0-0.7,0-0.9,0
			c-0.2,0-0.3,0.2-0.3,0.3c-0.1,0.2-0.1,0.5-0.5,0.4c-0.4-0.2-1-0.2-1.7-0.5c0.1,0.2,0.1,0.4,0.2,0.6c-0.6-0.1-0.8-0.5-1.3-0.7
			c0.1,0.2,0.1,0.4,0.2,0.6c-0.5-0.1-0.9-0.5-1.6-0.7c0,0,0,0-0.1,0c-0.2,0.1-0.5,0.1-0.7,0.2c0.5,0.5,0.9,1.2,1.1,2
			c0,0-0.3,0-0.8-0.2c0.1,0.4,0.2,0.9,0.2,1.4c0,0-0.4-0.1-0.9-0.4c0,0.5,0,1-0.1,1.5c0,0-0.4-0.2-1-0.7c-0.1,0.5-0.2,1-0.4,1.5
			c0,0-0.4-0.3-0.8-0.9c-0.2,0.5-0.4,1-0.7,1.5c0,0-0.4-0.5-0.7-1.4c-0.4,0.6-0.8,0.9-0.8,0.9c-0.2-0.5-0.3-1-0.4-1.5
			c-0.5,0.5-1,0.7-1,0.7c-0.1-0.5-0.1-1-0.1-1.5c-0.5,0.3-0.9,0.4-0.9,0.4c0-0.5,0.1-1,0.2-1.4c-0.5,0.2-0.8,0.2-0.8,0.2
			c0.2-0.8,0.7-1.7,1.1-2.1c0,0,0,0,0,0c-0.2-0.1-0.4-0.1-0.6-0.2c0,0,0,0-0.1,0c-0.7,0.2-1.1,0.6-1.6,0.7c0.1-0.2,0.1-0.4,0.2-0.6
			c-0.6,0.2-0.7,0.5-1.3,0.7c0.1-0.2,0.1-0.4,0.2-0.6c-0.6,0.3-1.3,0.5-1.7,0.5c-0.4,0.1-0.4-0.5-0.5-0.6c-0.1-0.1-0.4-0.1-0.5-0.1
			c-0.2,0-0.6,0-0.8,0c-0.3,0-0.5,0.1-0.6,0.2c-0.2,0.1-0.1,0.5,0,0.6c0.1,0.1,0,0.1-0.1,0c-0.2-0.1-0.2-0.2-0.2-0.3c0,0,0,0,0,0
			c-0.1,0-0.2,0-0.3,0c-0.1,0-0.2,0.1-0.2,0.2c0,0.1,0,0.4,0.2,0.5c0.2,0,0.2-0.1,0.5-0.1c-0.1,0.1-0.4,0.2-0.3,0.4
			c0,0.1,0.1,0.2,0.2,0.3c0.1,0.1,0.2,0.1,0.3,0c0.1-0.1,0.2-0.1,0.3-0.2c-0.1,0.1-0.1,0.1-0.1,0.2c0,0.1,0,0.3,0,0.3
			c0.1,0.1,0.3,0.1,0.4,0.1c0.2,0,0.2-0.1,0.3-0.2c0-0.1,0-0.2,0-0.3c0.1,0.1,0.2,0.4,0,0.7c-0.1,0.1-0.3,0.2-0.6,0
			c-0.2-0.1-0.3-0.1-0.3-0.3c0-0.1,0-0.1,0.1-0.2c0,0-0.1,0.1-0.1,0.1c-0.1,0.1-0.3,0-0.5-0.2c-0.2-0.2-0.1-0.3-0.1-0.4
			c0-0.1,0.1-0.1,0.1-0.1c-0.1,0-0.2,0-0.2,0c-0.2,0-0.2-0.1-0.3-0.3c-0.1-0.2-0.1-0.3,0-0.5c0.1-0.1,0.4-0.2,0.6-0.1
			c0-0.1,0-0.3,0.2-0.4c0.1-0.1,0.5-0.3,0.9-0.2c0.2,0,0.6,0,0.8,0c0.1,0,1-0.2,1.6-0.6c-0.3,0-0.4-0.2-0.6-0.2
			c0.3-0.3,0.9-0.4,1.1-0.7c-0.2,0-0.4-0.2-0.6-0.2c0.5-0.3,0.9-0.5,1.2-0.8c0,0,0.1-0.2,0.2-0.2c-0.2-0.4-0.3-0.9-0.3-1.4
			c0-0.1,0-0.2,0-0.4c-0.1,0.1-0.4,0.3-0.8,0.4c-0.2-0.5-0.1-1.4,0.1-2.1c-0.4,0.7-0.8,1.2-1.5,1.4c-0.2-0.5-0.1-1.4,0.2-2.1
			c-0.5,0.8-0.9,1.2-1.8,1.4c-0.1-0.6,0-1.5,0.3-2.2c-0.6,0.6-1.2,0.8-1.9,0.9c0-0.7,0.1-1.4,0.5-2.2c-0.5,0.6-1.4,0.9-2.1,1
			c0.1-0.6,0.5-1.5,0.8-2c-0.7,0.5-1.4,0.8-2.1,0.9c0.1-0.7,0.4-1.5,1-2.2c-0.7,0.5-1.7,0.8-2.4,0.7c0.2-0.8,0.7-1.6,1.3-2
			c-0.4,0.1-1.1,0.2-1.9,0.2c-0.5,1.6-0.7,3.3-0.7,5c-0.4-0.3-0.7-0.4-1-0.7c0.1,0.4,0.1,0.6,0.1,1c0.1,0.8,0.4,1.3,0.9,1.6
			c0,0.2,0.1,0.5,0.1,0.7c-0.4-0.3-0.9-0.4-1.6-0.4c0.4,1.4,1,1.5,1.8,1.6c0,0.1,0.1,0.2,0.1,0.4c-0.4-0.1-0.9-0.1-1.5,0
			c0.4,0.6,1,1,1.9,1.1c0,0,0,0,0,0c-0.6,0-1.1,0-1.6,0.3c0.7,0.6,1.3,0.8,2,0.7c0,0.1,0.1,0.2,0.1,0.2c-0.5,0.1-0.9,0.4-1.2,0.6
			c0.5,0.2,1.1,0.3,1.6,0.2c0,0,0,0,0,0c-0.3,0.2-0.5,0.6-0.7,1.1c0.4-0.1,0.8-0.1,1.2-0.2c0.1,0.1,0.2,0.3,0.2,0.4
			c-0.2,0.4-0.3,0.9-0.2,1.4c0.3-0.1,0.6-0.2,0.8-0.4c0.1,0.1,0.2,0.2,0.2,0.3c-0.1,0.6,0.1,1.2,0.4,1.7c0.1-0.2,0.3-0.3,0.4-0.5
			c0.8-1.2,0.3-2.1,0.3-2.9c0,0,0,0,0,0c0.1,0.9,0.9,1.9-0.1,3c0,0,0,0-0.1,0.1c3.3,3.8,8.1,6.2,13.4,6.2c7.6,0,14.1-4.8,16.6-11.6
			l0.8-0.3l-0.1,0.4l1.2-1L47,35.5l0.3,0.2l-0.6,0.3c0.1-0.3,0.2-0.6,0.3-0.9l0.9-0.5l0,0.4l1.1-1.1l-1.5,0.4l0.3,0.1l-0.7,0.4
			c0.1-0.3,0.2-0.7,0.3-1.1l0.7-0.4l0,0.4L49.1,32.5z"/>
		<path class="st1" d="M41,38.1c0.1,0,0.2,0,0.3,0c0.1,0,0.2,0.1,0.2,0.2c0,0.1-0.1,0.4-0.3,0.4c-0.2,0-0.2-0.1-0.5-0.1
			c0.1,0.1,0.4,0.2,0.3,0.4c0,0.1-0.1,0.2-0.2,0.3c-0.1,0.1-0.2,0.1-0.3,0c-0.1-0.1-0.2-0.1-0.3-0.2c0.1,0.1,0.1,0.1,0.1,0.2
			c0,0.1,0,0.3,0,0.3c-0.1,0.1-0.3,0.1-0.4,0.1c-0.2,0-0.2-0.2-0.3-0.3c0-0.1,0-0.2,0-0.3c-0.1,0.1-0.2,0.4,0,0.7
			c0.1,0.1,0.3,0.2,0.6,0.1c0.2-0.1,0.3-0.1,0.3-0.3c0-0.1,0-0.1,0-0.2c0,0,0.1,0.1,0.1,0.1c0.1,0.1,0.3,0,0.5-0.2
			c0.2-0.2,0.2-0.3,0.1-0.4c0-0.1-0.1-0.1-0.1-0.1c0.1,0,0.2,0,0.2,0c0.2,0,0.2-0.1,0.3-0.3c0.1-0.2,0.1-0.3,0-0.5
			c0-0.1-0.2-0.1-0.3-0.1l5.2-4.1l0,0.4l0.9-1.2L46,33.6l0.3,0.1l-5.2,4.1l0,0L41,37.9c0,0,0,0,0,0"/>
		<polyline class="st1" points="40.9,37.6 44.1,31.1 44.3,31.4 44.6,29.9 43.6,31.1 43.9,31 40.7,37.5 		"/>
		<path class="st1" d="M40.1,38.4c0.1,0.2,0.1,0.5,0,0.6c0.3-0.1,0.4-0.4,0.4-0.5C40.4,38.3,40.2,38.3,40.1,38.4z"/>
		<path class="st1" d="M40,38.4c-0.2,0-0.3-0.1-0.3-0.2c0-0.1-0.1-0.2-0.1,0c0,0.1,0,0.2,0.1,0.3C39.7,38.5,39.9,38.5,40,38.4z"/>
		<path class="st1" d="M40,39c-0.1-0.1-0.1-0.2-0.1-0.3c0,0.1-0.1,0.3-0.1,0.5c0,0,0,0.1,0.1,0.1c0.1,0,0.2,0,0.3-0.1
			C40.2,39.1,40.1,39.1,40,39z"/>
		<path class="st1" d="M44,32.2l0.4,0l-2,3.1c-0.2,0.5-0.5,0.9-0.7,1.4c0,0,0,0,0,0l2.8-4.3l0.1,0.3l0.5-1.5L44,32.2z"/>
		<path class="st1" d="M43.2,34.9l3.7-4.6l0.1,0.3l0.6-1.4l-1.2,0.9l0.4,0l-3.3,4.2c-0.3,0.4-0.5,0.8-0.8,1.2l0,0
			C42.8,35.3,43,35.1,43.2,34.9z"/>
		<path class="st1" d="M42.8,36.2c0.3-0.2,0.6-0.5,0.9-0.7l3-2.8l0,0.4l0.8-1.3l-1.4,0.7l0.4,0.1l-3.1,2.8
			C43.3,35.7,43,36,42.8,36.2z"/>
		<path class="st1" d="M46.1,35.6l-4.3,2.2c-0.1,0.1-0.1,0.1-0.2,0.1c0,0,0.1,0.1,0.1,0.1c0,0,0,0,0,0l4.5-2.2l-0.1,0.4l1.2-1
			l-1.5,0.3L46.1,35.6z"/>
		<path class="st1" d="M39.7,40.1c-0.1,0-0.1-0.1-0.2-0.1l-0.8,1.6l0,0l-0.3,0.1l-0.9,1.7l0.4-0.1l0.2,0.4L39,42l-0.1-0.3L39.7,40.1
			z"/>
		<path class="st1" d="M42.7,37.1c0.3-0.1,0.6-0.3,1-0.5l2.9-1.9l0,0.4l1-1.1L46,34.5l0.3,0.1l-3.1,2C43.1,36.8,42.8,36.9,42.7,37.1
			z"/>
		<path class="st1" d="M39.3,39.7c0-0.1,0-0.2,0-0.3l-1,1.1l-0.3,0l0,0l0,0L36.5,42l0.1,0l0,0l0,0l0.3,0l0.1,0.3l1.2-1.5l0.2,0
			L39.3,39.7z"/>
		<path class="st1" d="M41.2,37.5c0.1-0.1,0.3-0.2,0.5-0.4l5-5.5l0.1,0.4l0.7-1.4l-1.3,0.8l0.4,0l-5.2,5.7
			C41.3,37.3,41.2,37.4,41.2,37.5z"/>
		<path class="st1" d="M36.7,41.2l1.9-1.3c0.2-0.2,0.4-0.5,0.5-0.6l-2.3,1.5l0,0l-0.3-0.1l-0.2,0.1l-1.5,0.9l0.4,0.1l0.1,0.3l1.2-1
			L36.7,41.2z"/>
		<path class="st1" d="M35.2,41.4l0.7-0.5l0.7-0.5l0.2,0c0,0,1.7-1,2.1-1.3c0,0,0,0,0,0h0c0,0,0,0,0,0l-2.2,1.1l-0.3-0.1L34.7,41
			l0.4,0.1L35.2,41.4z"/>
		<path class="st1" d="M18.9,38.1c-0.2,0-0.6,0-0.6,0.1c-0.1,0.1-0.1,0.2,0,0.5c0.1,0.2,0.1,0.3,0.3,0.3c0,0,0.1,0,0.2,0
			c0,0-0.1,0.1-0.1,0.1c0,0.1-0.1,0.2,0.1,0.4c0.2,0.2,0.3,0.3,0.5,0.2c0.1,0,0.1-0.1,0.1-0.1c0,0.1,0,0.1-0.1,0.2
			c0,0.2,0.1,0.3,0.3,0.3c0.3,0.1,0.5,0.1,0.6,0c0.2-0.3,0.1-0.6,0-0.7c0,0.1,0,0.2,0,0.3c0,0.1-0.1,0.3-0.3,0.2
			c-0.1,0-0.3-0.1-0.4-0.1c-0.1-0.1-0.1-0.2,0-0.3c0-0.1,0-0.1,0.1-0.2c-0.1,0-0.2,0.1-0.3,0.2c-0.1,0.1-0.2,0.1-0.3,0
			c-0.1-0.1-0.2-0.2-0.2-0.3c-0.1-0.2,0.2-0.3,0.3-0.4c-0.2,0-0.3,0.1-0.5,0.1c-0.2,0-0.2-0.3-0.2-0.5c0-0.1,0.1-0.1,0.2-0.2
			c0.1,0,0.2,0,0.3,0"/>
		<path class="st1" d="M14.4,36C14.5,36,14.5,36,14.4,36c-0.6-0.3-0.9-0.4-1.7-0.3C13.5,35.8,14,35.9,14.4,36z"/>
		<path class="st1" d="M14.8,39.8c0.1-0.5,0.4-1.1,0.9-1.5c0.4-0.3,0.5-0.4,0.3-0.1C15.5,38.6,15,39.4,14.8,39.8z"/>
		<path class="st1" d="M15.9,41.2c-0.2-0.5,0-1.3,0.2-1.8c0.1-0.4,0.5-0.9,0.6-0.9C16.3,39.1,15.8,40.7,15.9,41.2z"/>
		<ellipse transform="matrix(0.98 -0.1991 0.1991 0.98 -6.5956 3.4642)" class="st1" cx="13.9" cy="34.5" rx="0.3" ry="0.3"/>
		<path class="st1" d="M17.2,34.9c0-0.5-0.1-1,0-1.6c-1,0.7-1.4,2-0.9,2.9c0,0-0.1,0-0.1,0c-0.2,0-0.3,0.2-0.3,0.4
			c0,0.2,0.2,0.3,0.4,0.3c0.2,0,0.3-0.2,0.3-0.4c0-0.1-0.1-0.2-0.2-0.2c-0.2-0.8,0-1.8,0.4-2.2c-0.1,0.5-0.4,1.5-0.2,2.5
			c0.2-0.2,0.3-0.4,0.4-0.5c0,0.2,0.1,0.3,0.1,0.5c0-0.8,0.3-1.5,1.1-2.1c-0.6,0.7-0.9,1.6-1,2.3c0.4-0.5,1.4-0.7,1.5-2.8
			C18.1,34,17.5,34.4,17.2,34.9z"/>
		<ellipse transform="matrix(0.9803 -0.1975 0.1975 0.9803 -6.9964 4.1905)" class="st1" cx="17.5" cy="37.2" rx="0.4" ry="0.4"/>
		<ellipse transform="matrix(0.9804 -0.1972 0.1972 0.9804 -7.2056 4.1785)" class="st1" cx="17.4" cy="38.3" rx="0.4" ry="0.4"/>
		<path class="st1" d="M15.6,32.8c-0.7,0.6-0.9,1.4-0.9,2.1c0,0-0.1,0-0.1,0c-0.2,0-0.3,0.2-0.2,0.3c0,0.2,0.2,0.3,0.3,0.2
			c0,0,0.1,0,0.1,0c0.1,0.2,0.2,0.4,0.3,0.5c-0.1-0.2-0.1-0.5-0.1-0.7c0,0,0-0.1,0-0.1c0,0,0,0,0,0c0-0.6,0.1-1.2,0.4-1.6
			c-0.1,0.6-0.3,1.9-0.1,2.6C15.5,35.3,16.6,34.9,15.6,32.8z"/>
		<ellipse transform="matrix(0.9802 -0.1982 0.1982 0.9802 -7.0976 4.3762)" class="st1" cx="18.3" cy="37.6" rx="0.3" ry="0.3"/>
		<ellipse transform="matrix(0.9801 -0.1984 0.1984 0.9801 -7.1258 4.0739)" class="st1" cx="16.8" cy="37.6" rx="0.3" ry="0.3"/>
		<path class="st1" d="M13.4,33.9c0-0.1-0.1-0.2-0.2-0.2c-0.4-0.5-0.9-1-1.8-1.1c0.5,0.2,1.2,0.7,1.7,1.1c-0.1,0-0.2,0.2-0.2,0.3
			c0,0.1,0.1,0.2,0.3,0.2C13.4,34.2,13.5,34.1,13.4,33.9z"/>
		<path class="st1" d="M13.4,32.3c0-0.2-0.2-0.3-0.4-0.2c0,0,0,0,0,0c-0.2-0.8-0.4-1.4-1.3-2c0.4,0.6,1,1.4,1.2,2
			c-0.1,0.1-0.2,0.2-0.2,0.3c0,0.2,0.2,0.3,0.4,0.2C13.4,32.6,13.5,32.4,13.4,32.3z"/>
		<path class="st1" d="M14.3,35.3c0-0.1-0.1-0.2-0.3-0.2c-0.1,0-0.1,0-0.2,0.1c-0.8-0.7-1.3-0.7-1.7-0.7c0.3,0.1,1.2,0.3,1.7,0.8
			c0,0,0,0.1,0,0.2c0,0.1,0.1,0.2,0.3,0.2C14.3,35.6,14.4,35.5,14.3,35.3z"/>
		<ellipse transform="matrix(0.9805 -0.1966 0.1966 0.9805 -6.865 3.5914)" class="st1" cx="14.7" cy="36.4" rx="0.3" ry="0.3"/>
		<path class="st1" d="M15.5,36.9c0-0.1-0.1-0.2-0.3-0.2c-0.1,0-0.1,0.1-0.2,0.1c-0.7-0.1-1.4,0-2.1,0.4c0.7-0.2,1.4-0.3,2-0.3l0,0
			c0,0,0,0.1,0,0.1c0,0.1,0.1,0.2,0.3,0.2C15.4,37.2,15.5,37,15.5,36.9z"/>
		<path class="st1" d="M16.2,37.3c0-0.2-0.2-0.3-0.4-0.2c-0.2,0-0.3,0.2-0.2,0.4c0,0,0,0,0,0c-0.5,0-1.4,0.1-1.9,0.7
			c0.5-0.3,1.4-0.6,1.9-0.7c0,0,0,0,0,0c0,0.2,0.2,0.3,0.4,0.2C16.1,37.7,16.3,37.5,16.2,37.3z"/>
		<path class="st1" d="M14.9,31.1c-1.1,0.5-1.7,1.9-1.1,3C14.4,33.3,15.4,33.2,14.9,31.1z M13.8,34c-0.1-0.6,0.2-2.1,0.7-2.4
			C14.2,32.4,14.1,33,13.8,34z"/>
		<path class="st1" d="M13.8,29c-0.4,0.1-0.9,0.7-1.1,1.3c0.1,0.1,0.2,0.2,0.2,0.3c0.1-0.5,0.4-1.1,0.7-1.3c-0.2,0.3-0.4,1-0.6,1.5
			c0.1,0.3,0.2,0.6,0.2,0.9C13.9,31.1,14.1,30,13.8,29z"/>
		<path class="st1" d="M20.7,38.9c1.4,1.1,2.3,2.6,2.5,3.8c-0.2-0.1-0.5-0.3-0.7-0.2c-0.2-1.3-0.9-2.3-1.9-3.2
			C20.5,39.1,20.6,39,20.7,38.9z"/>
		<path class="st1" d="M19.3,38.5c0.1-0.1,0.3-0.1,0.5-0.1c-0.1,0.2-0.1,0.5,0,0.6C19.4,39,19.3,38.7,19.3,38.5z"/>
		<path class="st1" d="M19.8,38.5c0.2,0,0.3-0.1,0.3-0.2c0-0.1,0.1-0.2,0.1,0c0,0.1,0,0.2-0.1,0.3C20.1,38.6,20,38.6,19.8,38.5z"/>
		<path class="st1" d="M19.9,38.8c0,0.1-0.1,0.2-0.1,0.3c-0.1,0.1-0.1,0.1-0.2,0.2c0.1,0.1,0.2,0.1,0.3,0.1c0.1,0,0.1,0,0.1-0.1
			C20,39.2,20,38.9,19.9,38.8z"/>
	</g>
</g>
</svg>
